<svg width="95" height="97" viewBox="0 0 95 97" fill="none" xmlns="http://www.w3.org/2000/svg">
<path d="M12.6445 85L11.4023 80.9219H5.15625L3.91406 85H0L6.04688 67.7969H10.4883L16.5586 85H12.6445ZM10.5352 77.875L9.29297 73.8906C9.21484 73.625 9.10938 73.2852 8.97656 72.8711C8.85156 72.4492 8.72266 72.0234 8.58984 71.5938C8.46484 71.1562 8.36328 70.7773 8.28516 70.457C8.20703 70.7773 8.09766 71.1758 7.95703 71.6523C7.82422 72.1211 7.69531 72.5664 7.57031 72.9883C7.44531 73.4102 7.35547 73.7109 7.30078 73.8906L6.07031 77.875H10.5352ZM25.8867 71.6523C27.2852 71.6523 28.4102 72.0352 29.2617 72.8008C30.1133 73.5586 30.5391 74.7773 30.5391 76.457V85H26.9648V77.3477C26.9648 76.4102 26.793 75.7031 26.4492 75.2266C26.1133 74.75 25.582 74.5117 24.8555 74.5117C23.7617 74.5117 23.0156 74.8828 22.6172 75.625C22.2188 76.3672 22.0195 77.4375 22.0195 78.8359V85H18.4453V71.8984H21.1758L21.6562 73.5742H21.8555C22.1367 73.1211 22.4844 72.7539 22.8984 72.4727C23.3203 72.1914 23.7852 71.9844 24.293 71.8516C24.8086 71.7188 25.3398 71.6523 25.8867 71.6523ZM32.3438 71.8984H36.2578L38.7305 79.2695C38.8086 79.5039 38.875 79.7422 38.9297 79.9844C38.9844 80.2266 39.0312 80.4766 39.0703 80.7344C39.1094 80.9922 39.1406 81.2617 39.1641 81.543H39.2344C39.2812 81.1211 39.3438 80.7266 39.4219 80.3594C39.5078 79.9922 39.6133 79.6289 39.7383 79.2695L42.1641 71.8984H45.9961L40.4531 86.6758C40.1172 87.582 39.6797 88.3359 39.1406 88.9375C38.6016 89.5469 37.9805 90.0039 37.2773 90.3086C36.582 90.6133 35.8164 90.7656 34.9805 90.7656C34.5742 90.7656 34.2227 90.7422 33.9258 90.6953C33.6289 90.6562 33.375 90.6133 33.1641 90.5664V87.7305C33.3281 87.7695 33.5352 87.8047 33.7852 87.8359C34.0352 87.8672 34.2969 87.8828 34.5703 87.8828C35.0703 87.8828 35.5 87.7773 35.8594 87.5664C36.2188 87.3555 36.5195 87.0703 36.7617 86.7109C37.0039 86.3594 37.1953 85.9727 37.3359 85.5508L37.5469 84.9062L32.3438 71.8984ZM48.1641 67.8672H53.4961C55.7773 67.8672 57.5039 68.1875 58.6758 68.8281C59.8477 69.4688 60.4336 70.5938 60.4336 72.2031C60.4336 72.8516 60.3281 73.4375 60.1172 73.9609C59.9141 74.4844 59.6172 74.9141 59.2266 75.25C58.8359 75.5859 58.3594 75.8047 57.7969 75.9062V76.0234C58.3672 76.1406 58.8828 76.3438 59.3438 76.6328C59.8047 76.9141 60.1719 77.3281 60.4453 77.875C60.7266 78.4141 60.8672 79.1328 60.8672 80.0312C60.8672 81.0703 60.6133 81.9609 60.1055 82.7031C59.5977 83.4453 58.8711 84.0156 57.9258 84.4141C56.9883 84.8047 55.8711 85 54.5742 85H48.1641V67.8672ZM51.7969 74.6523H53.9062C54.9609 74.6523 55.6914 74.4883 56.0977 74.1602C56.5039 73.8242 56.707 73.332 56.707 72.6836C56.707 72.0273 56.4648 71.5586 55.9805 71.2773C55.5039 70.9883 54.7461 70.8438 53.707 70.8438H51.7969V74.6523ZM51.7969 77.5352V82H54.1641C55.2578 82 56.0195 81.7891 56.4492 81.3672C56.8789 80.9453 57.0938 80.3789 57.0938 79.668C57.0938 79.2461 57 78.875 56.8125 78.5547C56.625 78.2344 56.3086 77.9844 55.8633 77.8047C55.4258 77.625 54.8203 77.5352 54.0469 77.5352H51.7969ZM76.0312 71.8984V85H73.2891L72.8086 83.3242H72.6211C72.3398 83.7695 71.9883 84.1328 71.5664 84.4141C71.1445 84.6953 70.6797 84.9023 70.1719 85.0352C69.6641 85.168 69.1367 85.2344 68.5898 85.2344C67.6523 85.2344 66.8359 85.0703 66.1406 84.7422C65.4453 84.4062 64.9023 83.8867 64.5117 83.1836C64.1289 82.4805 63.9375 81.5664 63.9375 80.4414V71.8984H67.5117V79.5508C67.5117 80.4883 67.6797 81.1953 68.0156 81.6719C68.3516 82.1484 68.8867 82.3867 69.6211 82.3867C70.3477 82.3867 70.918 82.2227 71.332 81.8945C71.7461 81.5586 72.0352 81.0703 72.1992 80.4297C72.3711 79.7812 72.457 78.9922 72.457 78.0625V71.8984H76.0312ZM77.9062 71.8984H81.8203L84.293 79.2695C84.3711 79.5039 84.4375 79.7422 84.4922 79.9844C84.5469 80.2266 84.5938 80.4766 84.6328 80.7344C84.6719 80.9922 84.7031 81.2617 84.7266 81.543H84.7969C84.8438 81.1211 84.9062 80.7266 84.9844 80.3594C85.0703 79.9922 85.1758 79.6289 85.3008 79.2695L87.7266 71.8984H91.5586L86.0156 86.6758C85.6797 87.582 85.2422 88.3359 84.7031 88.9375C84.1641 89.5469 83.543 90.0039 82.8398 90.3086C82.1445 90.6133 81.3789 90.7656 80.543 90.7656C80.1367 90.7656 79.7852 90.7422 79.4883 90.6953C79.1914 90.6562 78.9375 90.6133 78.7266 90.5664V87.7305C78.8906 87.7695 79.0977 87.8047 79.3477 87.8359C79.5977 87.8672 79.8594 87.8828 80.1328 87.8828C80.6328 87.8828 81.0625 87.7773 81.4219 87.5664C81.7812 87.3555 82.082 87.0703 82.3242 86.7109C82.5664 86.3594 82.7578 85.9727 82.8984 85.5508L83.1094 84.9062L77.9062 71.8984Z" fill="#FC9101"/>
<path d="M55.6826 6.62468C51.6179 9.3588 46.8685 9.8989 29.7153 4.87376C18.6826 1.64129 11.0135 9.99183 11 21.0024C10.9933 26.468 11.9755 31.7571 14.3058 36.3256C17.0896 41.7777 28.6578 52.9405 30.388 43.394C37.5189 4.06564 38.9989 32.7538 46.5335 32.215C51.6354 31.85 52.7226 -2.2646 64.6971 45.0102C67.9544 57.8714 85 35.1943 85 21.0024C85 15.7537 84.1093 10.668 81.9431 6.23678C76.5371 -4.82364 63.8898 1.10255 55.6826 6.62468Z" fill="url(#paint0_radial_578_1800)"/>
<mask id="mask0_578_1800" style="mask-type:alpha" maskUnits="userSpaceOnUse" x="11" y="0" width="74" height="49">
<path d="M55.6826 6.62468C51.6179 9.3588 46.8685 9.8989 29.7153 4.87376C18.6826 1.64129 11.0135 9.99183 11 21.0024C10.9933 26.468 11.9755 31.7571 14.3058 36.3256C17.0896 41.7777 28.6578 52.9405 30.388 43.394C37.5189 4.06564 38.9989 32.7538 46.5335 32.215C51.6354 31.85 52.7226 -2.2646 64.6971 45.0102C67.9544 57.8714 85 35.1943 85 21.0024C85 15.7537 84.1093 10.668 81.9431 6.23678C76.5371 -4.82364 63.8898 1.10255 55.6826 6.62468Z" fill="white"/>
</mask>
<g mask="url(#mask0_578_1800)">
<path d="M19.1076 46.4916C19.1076 46.4916 25.9694 23.0562 44.133 41.7776C59.8668 57.9938 80.8639 35.9861 80.8639 35.9861L79.5185 56.3237L46.8239 63.1927H12.6494L19.1076 46.4916Z" fill="url(#paint1_linear_578_1800)"/>
<path d="M34.7151 -4.15033C34.7151 -4.15033 18.8388 -4.15033 21.9333 17.6688C23.3676 27.7797 21.4907 39.3304 5.1582 43.2174C-11.1743 47.1045 -0.359508 -7.09996 -0.359508 -7.09996L41.5769 -30.8182L34.7151 -4.15033Z" fill="url(#paint2_radial_578_1800)"/>
<path d="M48.0257 -7.43252C48.0257 -7.43252 46.4071 18.1093 62.2377 17.5746C78.0683 17.0413 85.0028 23.6625 85.0485 35.1229C85.0943 46.5833 106.243 11.5515 106.243 11.5515L78.3872 -20.3947L48.0257 -7.43252Z" fill="url(#paint3_radial_578_1800)"/>
</g>
<circle cx="41.525" cy="45.1766" r="2.84897" fill="#E05500"/>
<circle cx="52.9205" cy="45.1766" r="2.84897" fill="#E05500"/>
<defs>
<radialGradient id="paint0_radial_578_1800" cx="0" cy="0" r="1" gradientUnits="userSpaceOnUse" gradientTransform="translate(48.0009 24.4096) rotate(-0.0175754) scale(66.0706 66.1396)">
<stop stop-color="#FF9900"/>
<stop offset="1" stop-color="#C41700"/>
</radialGradient>
<linearGradient id="paint1_linear_578_1800" x1="6.7052" y1="45.8623" x2="99.2071" y2="52.443" gradientUnits="userSpaceOnUse">
<stop stop-color="#FF9900"/>
<stop offset="1" stop-color="#C41700"/>
</linearGradient>
<radialGradient id="paint2_radial_578_1800" cx="0" cy="0" r="1" gradientUnits="userSpaceOnUse" gradientTransform="translate(18.8538 6.29932) rotate(-0.0435159) scale(40.5774 100.573)">
<stop stop-color="#FF9900"/>
<stop offset="1" stop-color="#C41700"/>
</radialGradient>
<radialGradient id="paint3_radial_578_1800" cx="0" cy="0" r="1" gradientUnits="userSpaceOnUse" gradientTransform="translate(77.1119 8.51574) rotate(-0.026438) scale(52.0211 78.3352)">
<stop stop-color="#FF9900"/>
<stop offset="1" stop-color="#C41700"/>
</radialGradient>
</defs>
</svg>
