<svg width="355" height="432" viewBox="0 0 355 432" fill="none" xmlns="http://www.w3.org/2000/svg">
<path fill-rule="evenodd" clip-rule="evenodd" d="M332.407 393.795C323.155 313.021 375.41 149.72 295.074 106.039C170.455 38.28 -11.237 132.92 1.2244 285.74C10.0356 393.795 342.869 485.14 332.407 393.795Z" fill="#FBBC05"/>
<path d="M211.283 143.797C210.974 142.891 210.618 142.061 210.501 141.198C210.261 139.423 210.067 137.634 210 135.846C209.861 132.134 209.816 127.802 209.737 124.089C209.725 123.522 209.613 122.943 210.525 122.911C211.439 122.879 215.797 120.098 215.797 122.209C215.797 126.592 216.409 133.301 216.792 137.607C216.915 138.999 217.493 140.133 217.523 141.748C217.574 144.472 212.765 143.765 211.283 143.797Z" fill="white"/>
<path fill-rule="evenodd" clip-rule="evenodd" d="M150.511 104.218C149.555 104.3 148.599 104.444 147.642 104.456C141.706 104.531 135.769 104.571 129.832 104.646C129.477 104.65 127.889 104.655 127.533 104.659C125.976 104.68 124.419 104.704 122.862 104.731C122.134 104.744 122.638 104.766 121.91 104.794C119.321 104.896 116.733 105.078 114.145 105.21C112.693 105.284 111.239 105.343 109.79 105.462C106.004 105.775 87.4369 106.742 83.6512 107.056C82.7578 107.13 82.2448 107.353 82.3188 108.453C82.4854 110.93 82.5489 156.54 82.569 159.024C82.5749 159.753 82.7773 159.914 83.4541 159.857C85.736 159.663 102.806 158.897 105.091 158.735C107.458 158.567 109.823 158.382 112.192 158.245C115.424 158.058 118.659 157.916 121.892 157.736C122.356 157.71 122.812 157.559 123.276 157.5C125.278 157.244 127.278 156.971 129.284 156.761C131.234 156.558 133.189 156.389 135.146 156.264C139.376 155.994 143.606 155.708 147.84 155.531C151.642 155.371 155.449 155.351 159.253 155.266C162.81 155.186 166.366 155.096 169.923 155.021C174.14 154.932 178.358 154.843 182.575 154.774C188.237 154.681 193.899 154.619 199.56 154.518C202.375 154.468 205.188 154.363 208.002 154.275C210.403 154.199 212.803 154.081 215.205 154.034C220.536 153.932 225.868 153.857 231.2 153.782C237.522 153.693 243.845 153.655 250.167 153.519C254.599 153.424 265.805 153.21 270.234 153.015C270.451 153.005 270.829 152.667 270.833 152.475C270.877 150.371 270.859 105.143 270.861 103.038C270.863 102.146 270.347 101.643 269.543 101.51C268.598 101.354 267.634 101.284 266.676 101.253C263.409 101.15 253.364 100.999 250.096 101.012C238.243 101.058 226.39 101.15 214.537 101.251C213.217 101.262 211.897 101.273 210.577 101.285C205.863 101.327 201.149 101.384 196.437 101.521C193.522 101.606 190.617 102.008 187.705 102.231C184.177 102.5 180.646 102.733 177.116 102.978C175.83 103.067 174.543 103.142 173.256 103.227C169.52 103.474 165.787 103.787 162.047 103.952C158.288 104.117 154.522 104.135 150.511 104.218Z" fill="white"/>
<path fill-rule="evenodd" clip-rule="evenodd" d="M76.0772 85.2708C74.4373 85.1117 72.8128 84.7923 71.1822 84.5404C71.0712 84.5233 70.9667 84.4643 70.8592 84.4248C70.9617 84.3818 71.0611 84.327 71.1675 84.2995C71.2449 84.2795 71.3317 84.2973 71.4142 84.2954C74.9304 84.2131 78.4474 84.1558 81.9625 84.0414C86.1885 83.9038 90.4131 83.7229 94.6379 83.5498C96.2557 83.4836 97.8716 83.3701 99.4896 83.3087C102.056 83.2114 104.623 83.1457 107.189 83.0552C109.261 82.9821 111.332 82.887 113.403 82.8104C117.958 82.642 122.514 82.4843 127.069 82.3113C128.811 82.2451 130.551 82.1291 132.292 82.0707C135.23 81.972 138.169 81.9094 141.107 81.8158C143.261 81.7472 145.414 81.6473 147.568 81.5724C150.135 81.4832 152.702 81.4127 155.268 81.3209C157.257 81.2497 159.245 81.1404 161.235 81.0794C164.42 80.9819 167.606 80.9172 170.792 80.8255C173.276 80.754 175.76 80.6589 178.244 80.581C181.017 80.4941 183.791 80.4149 186.564 80.3323C189.337 80.2497 192.11 80.1653 194.883 80.0851C197.821 80.0002 200.759 79.9207 203.698 79.8365C206.526 79.7556 209.354 79.6677 212.183 79.5903C215.369 79.503 218.555 79.4245 221.741 79.3414C224.886 79.2593 228.03 79.1747 231.175 79.0942C234.484 79.0096 237.794 78.9294 241.104 78.8458C244.331 78.7643 247.56 78.7098 250.785 78.589C253.248 78.4967 255.706 78.3097 258.168 78.1901C258.532 78.1724 258.904 78.3476 259.271 78.3425C264.356 78.272 269.441 78.1933 274.526 78.1004C278.331 78.0308 282.136 77.9347 285.942 77.8561C290.118 77.7698 294.295 77.6617 298.472 77.6166C300.639 77.5972 302.064 78.5751 302.575 80.62C302.829 81.6388 302.696 82.7594 302.703 83.8342C302.723 86.5968 302.755 89.3599 302.719 92.1221C302.697 93.8426 302.561 95.5617 302.48 97.2816C302.464 97.6088 302.46 97.9369 302.46 98.2645C302.459 101.87 302.488 105.476 302.453 109.082C302.393 115.406 302.3 121.729 302.21 128.052C302.136 133.303 302.046 138.553 301.964 143.803C301.881 149.135 301.799 154.468 301.716 159.801C301.634 165.051 301.563 170.301 301.464 175.551C301.406 178.655 301.282 181.757 301.228 184.861C301.191 187.021 301.244 189.183 301.216 191.344C301.148 196.676 301.068 202.009 300.969 207.342C300.912 210.404 300.786 213.465 300.733 216.528C300.695 218.73 300.756 220.933 300.718 223.134C300.665 226.156 300.536 229.176 300.486 232.197C300.447 234.522 300.51 236.849 300.47 239.175C300.422 241.948 300.287 244.721 300.238 247.494C300.199 249.737 300.254 251.981 300.225 254.225C300.157 259.681 300.07 265.138 299.981 270.594C299.905 275.266 299.826 279.939 299.732 284.61C299.664 288.003 299.545 291.395 299.495 294.788C299.456 297.402 299.519 300.018 299.478 302.632C299.436 305.324 299.291 308.013 299.248 310.704C299.207 313.277 299.271 315.852 299.23 318.425C299.191 320.869 299.04 323.31 299.001 325.754C298.959 328.368 299.017 330.984 298.986 333.599C298.921 339.014 298.83 344.429 298.743 349.844C298.666 354.599 298.668 359.358 298.471 364.107C298.281 368.675 299.334 372.912 301.605 376.812C303.919 380.784 306.399 384.662 308.858 388.548C311.289 392.39 313.422 396.389 314.552 400.798C315.359 403.947 315.478 407.214 314.572 410.401C314.262 411.491 312.375 419.008 313.981 420.961C316.042 423.468 318.647 424.593 321.856 424.666C324.984 424.738 327.954 423.977 330.952 423.283C334.597 422.439 338.257 421.829 341.927 423.161C343.753 423.824 345.399 424.76 346.479 426.45C346.643 426.707 347.043 427.14 346.171 427.145C344.058 427.156 341.946 427.287 339.833 427.369C335.608 427.534 331.383 427.704 327.158 427.863C324.715 427.955 322.272 428.033 319.829 428.111C317.098 428.198 314.366 428.283 311.634 428.359C308.448 428.447 305.262 428.533 302.076 428.606C298.106 428.697 294.136 428.78 290.165 428.854C285.287 428.944 280.409 429.031 275.53 429.101C269.041 429.193 262.552 429.259 256.064 429.354C251.639 429.419 247.215 429.518 242.791 429.597C242.034 429.61 241.276 429.593 240.519 429.599C231.388 429.681 222.257 429.764 213.127 429.845C212.328 429.852 211.53 429.84 210.731 429.847C201.394 429.928 192.057 430.012 182.72 430.093C181.88 430.1 181.04 430.088 180.2 430.095C170.946 430.176 161.691 430.26 152.436 430.341C151.638 430.348 150.839 430.336 150.041 430.343C140.704 430.424 131.366 430.507 122.029 430.588C121.272 430.595 120.515 430.584 119.757 430.59C110.42 430.672 101.083 430.755 91.7459 430.836C90.9474 430.843 90.1488 430.831 89.3503 430.838C80.0131 430.919 70.676 431.003 61.3388 431.084C60.6229 431.09 59.9068 431.079 59.1908 431.086C49.6885 431.167 40.1863 431.249 30.684 431.337C30.5323 431.339 30.3813 431.415 30.23 431.518C30.23 431.58 30.1061 431.58 30.0442 431.58C29.7104 431.498 29.4393 431.347 29.1665 431.344C27.3089 431.322 25.451 431.336 23.5933 431.326C23.4158 431.325 23.2388 431.24 23.0615 431.194C23.2116 431.157 23.3627 431.125 23.5117 431.084C27.4847 430.012 31.4298 428.815 35.441 427.912C37.7147 427.4 40.0928 427.32 42.431 427.136C44.414 426.981 46.4067 426.93 48.3963 426.887C49.1501 426.871 49.0876 426.703 48.8893 426.047C48.0551 423.288 47.0959 420.531 46.6538 417.7C46.2866 415.349 46.4866 412.89 46.6096 410.487C46.6979 408.765 46.9491 407.028 47.3546 405.352C47.8214 403.423 48.4369 401.514 49.1658 399.667C51.089 394.793 54.5094 390.986 58.0449 387.226C60.158 384.98 62.0751 382.511 63.8059 379.956C64.8524 378.411 65.4154 376.527 65.4076 374.564C65.3953 371.467 65.4344 368.37 65.3972 365.275C65.3421 360.685 65.2454 356.095 65.1546 351.506C65.0818 347.824 64.9683 344.143 64.9139 340.461C64.8138 333.684 64.7817 326.905 64.6458 320.129C64.5736 316.524 64.2619 312.923 64.2095 309.318C64.1649 306.255 64.4354 303.187 64.39 300.125C64.3254 295.771 64.0902 291.42 63.9541 287.067C63.9386 286.57 64.1593 286.068 64.1557 285.57C64.0868 276.067 63.9623 266.565 63.9279 257.062C63.8864 245.571 63.9497 234.08 63.9082 222.589C63.8743 213.21 63.6856 203.831 63.6885 194.453C63.6916 184.166 63.8514 173.879 63.9119 163.592C63.9462 157.757 63.8868 151.921 63.9282 146.086C63.9602 141.579 64.089 137.072 64.1623 132.565C64.1847 131.189 64.1516 129.812 64.1682 128.435C64.2453 122.07 64.3442 115.706 64.4079 109.341C64.4399 106.148 64.3813 102.954 64.4229 99.7617C64.4616 96.7816 64.5794 93.8025 64.6602 90.8229C64.6699 90.4638 64.6658 90.1044 64.6681 89.7452C64.7484 90.1432 64.8552 90.538 64.9046 90.9398C65.2431 93.6919 65.579 96.4444 65.8947 99.1991C66.0087 100.193 66.0763 101.194 66.1452 102.192C66.3171 104.683 66.4757 107.175 66.6433 109.666C66.8892 113.32 81.8188 116.674 81.8518 116.275C81.984 116.657 82.125 117.037 82.247 117.423C83.3528 120.921 84.0456 124.493 84.5111 128.137C85.1718 133.31 85.2257 138.492 85.2252 143.687C85.2186 211.228 85.2244 278.769 85.1895 346.31C85.1889 347.402 85.5244 347.835 86.5108 348.12C89.7485 349.056 93.0779 349.396 96.3801 349.046C102.625 348.385 113.823 346.189 118.74 342.105C122.668 338.843 125.464 334.852 127.126 330.102C127.776 328.245 127.924 326.193 128.144 324.212C128.345 322.401 128.524 320.551 128.374 318.747C128.119 315.684 127.628 312.638 127.176 309.594C126.809 307.117 126.284 304.662 125.956 302.18C125.478 298.562 125.012 294.936 124.732 291.299C124.497 288.248 124.274 285.157 124.508 282.119C124.986 275.913 125.955 269.765 127.668 263.754C129.499 257.33 132.05 251.199 135.224 245.335C137.585 240.973 140.29 236.814 143.543 233.056C146.063 230.144 148.683 227.313 151.34 224.523C152.472 223.335 153.835 222.371 155.053 221.261C159.682 217.039 163.072 211.836 166.57 206.714C169.3 202.717 166.354 198.61 169.352 194.822C173.301 189.833 178.145 185.878 184.44 184.139C186.755 183.499 189.137 183.089 191.501 182.643C196.521 181.696 201.609 181.754 206.672 181.933C211.933 182.118 216.932 183.444 221.424 186.348C225.126 188.74 227.813 192.096 230.102 195.753C232.778 200.028 235.307 204.399 237.794 208.788C240.991 214.432 244.095 220.129 247.216 225.815C248.895 228.873 250.549 231.945 252.175 235.032C255.547 241.436 268.414 266.658 271.498 272.853C271.613 273.084 271.755 273.303 271.884 273.527C272.002 273.246 272.209 272.97 272.226 272.683C272.412 269.491 272.572 266.297 272.734 263.104C272.902 259.787 273.068 256.47 273.229 253.153C273.398 249.671 273.566 246.19 273.724 242.707C273.896 238.936 274.062 235.165 274.219 231.394C274.392 227.252 274.553 223.109 274.716 218.966C274.802 216.771 274.885 214.576 274.963 212.381C275.05 209.938 275.129 207.495 275.212 205.052C275.294 202.651 275.383 200.249 275.458 197.848C275.547 194.992 275.626 192.136 275.707 189.28C275.791 186.342 275.878 183.404 275.953 180.466C276.042 176.991 276.125 173.516 276.201 170.041C276.289 166.07 276.378 162.1 276.448 158.13C276.54 152.921 276.604 147.712 276.702 142.503C276.762 139.358 276.908 136.214 276.935 133.069C276.976 128.431 276.916 123.792 276.956 119.155C276.982 116.175 277.116 113.196 277.185 110.216C277.192 109.917 277.086 109.615 277.032 109.314C276.778 109.498 276.486 109.647 276.276 109.872C274.665 111.594 272.63 112.209 270.337 112.297C266.812 112.433 263.486 111.394 260.105 110.674C256.866 109.984 253.612 109.213 250.292 109.609C248.32 109.845 246.364 110.435 244.471 111.075C241.418 112.106 238.512 111.793 235.621 110.556C232.816 109.355 230.036 108.081 227.178 107.022C224.604 106.069 221.875 106.078 219.379 107.166C218.161 107.698 216.939 108.837 216.328 110.017C214.898 112.776 212.74 114.06 209.777 114.547C205.866 115.191 202.419 113.876 198.943 112.449C196.12 111.29 193.326 109.985 190.401 109.169C186.497 108.079 182.909 109.262 179.673 111.59C177.638 113.054 175.72 114.739 173.53 115.914C170.593 117.49 166.311 117.717 163.993 115.116C163.588 114.661 163.175 114.115 163.028 113.544C162.443 111.281 160.978 110.794 158.944 110.559C156.014 110.221 153.862 111.796 151.738 113.497C149.771 115.071 147.937 116.823 145.264 117.315C143.141 117.706 141.147 117.428 139.265 116.619C136.074 115.248 132.944 113.728 129.838 112.169C127.061 110.775 124.093 110.081 121.112 110.65C119.192 111.017 117.384 112.211 115.648 113.241C113.543 114.489 111.661 116.132 109.512 117.288C105.815 119.276 102.501 119.321 97.7657 118.545C93.0301 117.769 81.6057 110.367 81.0339 109.609C80.9543 109.504 79.1894 85.5726 76.0772 85.2708Z" fill="white"/>
<path fill-rule="evenodd" clip-rule="evenodd" d="M147.817 336.803C146.798 329.344 146.518 322.5 146.976 316.27C147.435 310.04 148.849 300.873 151.218 288.77C146.688 300.709 143.995 309.876 143.14 316.27C142.286 322.664 142.781 330.271 144.628 339.092L147.817 336.803Z" fill="#FBBC05"/>
<path fill-rule="evenodd" clip-rule="evenodd" d="M214.447 246.98C218.937 246.551 221.776 247.446 222.63 249.988C224.075 254.286 213.553 260.031 209.842 259.686C208.54 258.492 221.462 255.267 220.295 250.773C219.997 249.63 218.159 249.101 214.681 249.433C214.004 249.498 213.402 249.001 213.337 248.324C213.273 247.646 213.769 247.045 214.447 246.98Z" fill="#00160A"/>
<path fill-rule="evenodd" clip-rule="evenodd" d="M236.594 361.863C236.264 361.079 236.732 356.215 239.312 351.555C243.586 343.838 262.174 341.281 269.134 334.258C277.963 325.35 274.229 314.893 273.75 313.917C273.635 313.683 273.591 313.415 273.514 313.163C273.718 313.296 273.958 313.395 274.122 313.567C277.001 316.586 278.906 320.166 279.786 324.212C280.73 328.548 281.035 332.935 278.902 337.055C278.434 337.958 277.482 338.686 276.611 339.291C273.983 341.115 261.101 346.163 257.499 346.886C254.023 347.583 251.009 349.191 247.81 350.453C245.845 351.228 244.776 353.031 243.236 354.283C241.611 355.605 241.143 357.223 241.289 359.175C241.332 359.75 241.272 360.331 241.299 360.908C241.471 364.617 237.607 364.273 236.594 361.863Z" fill="#FBBC05"/>
<path fill-rule="evenodd" clip-rule="evenodd" d="M162.435 258.733C164.205 258.733 164.864 257.354 163.926 255.653C163.007 253.952 161.21 252.573 159.892 252.573C158.575 252.573 157.87 253.952 158.336 255.653C158.822 257.354 160.665 258.733 162.435 258.733Z" fill="#FFB61D"/>
<path fill-rule="evenodd" clip-rule="evenodd" d="M196.933 266.741C198.703 266.741 199.362 265.362 198.424 263.661C197.505 261.96 195.708 260.581 194.39 260.581C193.073 260.581 192.368 261.96 192.834 263.661C193.32 265.362 195.163 266.741 196.933 266.741Z" fill="#FFB61D"/>
<path fill-rule="evenodd" clip-rule="evenodd" d="M300.936 77.0003C303.103 76.9811 304.528 77.9591 305.039 80.0039C305.293 81.0228 305.16 82.1433 305.167 83.2181C305.187 85.9807 305.219 88.7439 305.184 91.506C305.162 93.2266 305.025 94.9456 304.944 96.6655C304.928 96.9927 304.925 97.3208 304.924 97.6485C304.923 101.254 304.952 104.86 304.917 108.466C304.857 114.79 304.764 121.113 304.674 127.436C304.6 132.687 304.51 137.937 304.428 143.187C304.345 148.519 304.264 153.852 304.18 159.185C304.098 164.435 304.027 169.685 303.928 174.935C303.87 178.039 303.746 181.141 303.692 184.245C303.655 186.405 303.708 188.567 303.68 190.728C303.612 196.06 303.532 201.393 303.433 206.726C303.376 209.788 303.25 212.849 303.197 215.912C303.159 218.113 303.22 220.317 303.182 222.518C303.13 225.54 303 228.56 302.95 231.581C302.911 233.906 302.974 236.233 302.934 238.559C302.886 241.332 302.751 244.105 302.702 246.878C302.663 249.121 302.718 251.365 302.69 253.608C302.621 259.065 302.534 264.522 302.445 269.978C302.369 274.65 302.29 279.322 302.196 283.994C302.128 287.387 302.01 290.779 301.959 294.172C301.92 296.786 301.983 299.402 301.942 302.016C301.9 304.707 301.755 307.397 301.712 310.088C301.671 312.661 301.736 315.236 301.694 317.809C301.655 320.253 301.504 322.694 301.465 325.138C301.424 327.752 301.482 330.368 301.45 332.983C301.386 338.398 301.294 343.813 301.207 349.228C301.13 353.983 301.132 358.741 300.935 363.491C300.745 368.059 301.798 372.296 304.069 376.196C306.383 380.168 308.863 384.046 311.322 387.932C313.753 391.774 315.886 395.773 317.017 400.182C317.823 403.331 317.942 406.598 317.036 409.785C316.726 410.875 314.839 418.392 316.445 420.345C318.506 422.852 321.111 423.977 324.32 424.05C327.448 424.122 330.418 423.361 333.416 422.667C337.061 421.823 340.721 421.213 344.391 422.545C346.217 423.208 347.863 424.144 348.943 425.834C349.108 426.091 349.507 426.524 348.635 426.529C346.522 426.54 344.41 426.671 342.297 426.753C338.072 426.918 333.847 427.088 329.622 427.247C327.179 427.339 324.736 427.417 322.294 427.495C319.562 427.582 316.83 427.667 314.098 427.743C310.912 427.831 307.727 427.917 304.54 427.99C300.57 428.08 296.6 428.164 292.63 428.237C287.751 428.328 282.873 428.415 277.994 428.485C271.505 428.577 265.017 428.643 258.528 428.738C254.104 428.803 249.679 428.902 245.255 428.981C244.498 428.994 243.74 428.977 242.983 428.983C233.852 429.065 224.722 429.148 215.591 429.229C214.792 429.236 213.994 429.224 213.195 429.231C203.858 429.312 194.521 429.396 185.184 429.477L182.664 429.479C173.41 429.56 164.155 429.644 154.9 429.725C154.102 429.732 153.303 429.72 152.505 429.726C143.168 429.808 133.83 429.891 124.493 429.972C123.736 429.979 122.979 429.968 122.222 429.974C112.884 430.055 103.547 430.139 94.21 430.22C93.4115 430.227 92.6129 430.215 91.8144 430.222C82.4772 430.303 73.14 430.387 63.8029 430.468C63.087 430.474 62.3709 430.463 61.6549 430.47C52.1526 430.551 42.6503 430.633 33.1481 430.721C32.9964 430.723 32.8454 430.799 32.6941 430.902C32.6941 430.964 32.5702 430.964 32.5083 430.964C32.1745 430.882 31.9034 430.731 31.6306 430.727C29.773 430.706 27.9151 430.72 26.0574 430.71C25.8799 430.709 25.7028 430.624 25.5256 430.578C25.6757 430.541 25.8268 430.508 25.9758 430.468C29.9488 429.395 33.8939 428.199 37.9051 427.296C40.1788 426.784 42.5569 426.704 44.8951 426.52C46.8781 426.365 48.8708 426.314 50.8604 426.271C51.6142 426.255 51.5517 426.087 51.3534 425.431C50.5192 422.672 49.56 419.915 49.1179 417.084C48.7507 414.733 48.9506 412.274 49.0737 409.871C49.162 408.149 49.4132 406.412 49.8187 404.736C50.2854 402.807 50.901 400.898 51.6299 399.051C53.5531 394.177 56.9735 390.37 60.509 386.61C62.6221 384.364 64.5392 381.895 66.27 379.34C67.3165 377.795 67.8795 375.911 67.8717 373.947C67.8594 370.851 67.8985 367.754 67.8613 364.659C67.8062 360.069 67.7095 355.479 67.6187 350.89C67.5459 347.208 67.4324 343.527 67.378 339.845C67.2779 333.068 67.2458 326.289 67.1099 319.513C67.0377 315.907 66.726 312.307 66.6735 308.702C66.629 305.639 66.8995 302.571 66.8541 299.508C66.7895 295.155 66.5543 290.804 66.4182 286.451C66.4027 285.954 66.6234 285.452 66.6198 284.954C66.5509 275.451 66.4264 265.949 66.392 256.446C66.3505 244.955 66.4138 233.464 66.3723 221.973C66.3384 212.594 66.1497 203.215 66.1526 193.837C66.1557 183.55 66.3155 173.263 66.376 162.976C66.4103 157.141 66.3509 151.305 66.3923 145.47C66.4242 140.963 66.5531 136.456 66.6264 131.949C66.6488 130.573 66.6157 129.196 66.6323 127.819C66.7094 121.454 66.8083 115.09 66.872 108.725C66.904 105.532 66.8454 102.338 66.887 99.1456C66.9257 96.1655 67.0435 93.1864 67.1243 90.2068C67.134 89.8478 67.1299 89.4883 67.1322 89.1291C67.2125 89.5271 67.3193 89.9219 67.3687 90.3237C67.7072 93.0758 68.0431 95.8283 68.3588 98.5831C68.4728 99.5774 68.5403 100.578 68.6093 101.576C68.7812 104.067 68.9398 106.559 69.1074 109.05C69.3533 112.704 69.6188 116.357 69.845 120.013C70.0348 123.081 70.2043 126.15 70.3397 129.221C70.5278 133.486 70.6846 137.753 70.8377 142.02C70.9371 144.792 71.0601 147.566 71.0795 150.339C71.1815 164.878 71.2571 179.417 71.3337 193.957C71.3512 197.273 71.3651 200.591 71.3298 203.907C71.271 209.447 71.1728 214.986 71.0881 220.525C71.0078 225.775 70.9368 231.026 70.8352 236.275C70.7855 238.843 70.6657 241.409 70.598 243.976C70.5693 245.063 70.5995 246.151 70.5922 247.238C70.5112 259.383 70.3904 271.528 70.362 283.672C70.3485 289.418 70.4972 295.164 70.5991 300.909C70.6475 303.642 70.7521 306.373 70.8428 309.105C70.9158 311.3 70.9927 313.496 71.0917 315.69C71.2451 319.09 71.4052 322.49 71.5884 325.888C71.7317 328.546 71.8987 331.202 72.0834 333.857C72.3147 337.183 72.5557 340.507 72.8323 343.829C72.9371 345.087 73.0977 346.346 73.3486 347.582C73.4336 348 73.7952 348.474 74.166 348.705C76.5072 350.162 78.9354 349.379 80.8767 347.929C83.1269 346.248 84.1004 343.779 84.1978 341.033C84.3524 336.68 84.4521 332.322 84.4539 327.966C84.4719 285.346 84.4945 242.726 84.4541 200.107C84.4279 172.357 84.2992 144.606 84.2213 116.856C84.2202 116.457 84.2829 116.058 84.3159 115.659C84.4481 116.041 84.5891 116.421 84.7111 116.807C85.8169 120.304 86.5096 123.877 86.9752 127.521C87.6359 132.694 87.6898 137.876 87.6893 143.071L87.6821 244.383C87.6783 278.153 87.671 311.924 87.6535 345.694C87.653 346.786 87.9885 347.219 88.9749 347.504C92.2126 348.44 95.542 348.78 98.8442 348.43C105.089 347.769 110.743 345.573 115.66 341.489C119.587 338.227 122.384 334.236 124.046 329.486C124.695 327.629 124.844 325.576 125.064 323.596C125.264 321.785 125.444 319.935 125.294 318.131C125.038 315.068 124.547 312.022 124.096 308.978C123.729 306.501 123.204 304.046 122.876 301.564C122.398 297.946 121.932 294.32 121.652 290.683C121.417 287.632 121.194 284.541 121.428 281.503C121.906 275.297 122.875 269.149 124.588 263.138C126.419 256.714 128.97 250.583 132.144 244.719C134.505 240.357 137.21 236.198 140.462 232.44C142.983 229.527 145.603 226.697 148.26 223.907C149.392 222.719 150.755 221.755 151.973 220.644C156.602 216.423 159.992 211.22 163.49 206.098C166.22 202.101 168.818 197.994 171.816 194.206C175.765 189.217 180.61 185.262 186.904 183.523C189.219 182.883 191.601 182.473 193.965 182.027C198.985 181.08 204.073 181.138 209.136 181.317C214.397 181.502 219.396 182.828 223.889 185.732C227.59 188.124 230.277 191.48 232.566 195.137C235.242 199.412 237.771 203.783 240.258 208.172C243.455 213.816 246.559 219.513 249.68 225.199C251.359 228.257 253.013 231.329 254.639 234.416C256.669 238.272 257.835 239.777 259.474 243.976C260.557 246.75 262.473 251.947 263.783 254.511C266.396 259.626 266.85 262.998 268.758 267.746C269.149 268.718 271.206 269.908 271.677 270.991C272.555 273.007 274.341 275.928 274.47 276.152C274.589 275.871 274.673 272.354 274.69 272.066C274.876 268.875 275.036 265.681 275.198 262.488C275.366 259.171 275.532 255.854 275.693 252.537C275.862 249.055 276.03 245.573 276.188 242.091C276.36 238.32 276.526 234.549 276.683 230.778C276.856 226.636 277.017 222.493 277.18 218.35C277.266 216.155 277.349 213.96 277.427 211.765C277.514 209.322 277.593 206.879 277.676 204.436C277.758 202.035 277.847 199.633 277.922 197.231C278.011 194.376 278.09 191.52 278.171 188.664C278.255 185.726 278.342 182.788 278.417 179.85C278.506 176.375 278.589 172.9 278.665 169.425C278.753 165.454 278.842 161.484 278.912 157.513C279.004 152.305 279.068 147.095 279.166 141.887C279.226 138.742 279.372 135.598 279.399 132.453C279.44 127.815 279.38 123.176 279.42 118.539C279.446 115.559 279.58 112.58 279.649 109.6C279.656 109.301 279.55 108.999 279.496 108.698C279.242 108.882 278.95 109.031 278.74 109.255C277.129 110.978 275.094 111.593 272.801 111.681C269.277 111.817 265.95 110.778 262.569 110.058C259.33 109.368 256.076 108.597 252.756 108.993C250.784 109.229 248.828 109.819 246.935 110.459C243.882 111.49 240.976 111.177 238.085 109.939C235.28 108.739 232.5 107.464 229.642 106.406C227.069 105.453 224.339 105.462 221.844 106.55C220.625 107.082 219.403 108.221 218.792 109.401C217.362 112.16 215.204 113.444 212.241 113.931C208.33 114.575 204.883 113.26 201.407 111.833C198.584 110.674 195.79 109.369 192.865 108.553C188.961 107.463 185.373 108.645 182.137 110.974C180.102 112.438 178.184 114.123 175.994 115.298C173.057 116.874 168.775 117.101 166.457 114.5C166.052 114.045 165.639 113.499 165.492 112.928C164.907 110.665 163.442 110.178 161.408 109.943C158.478 109.605 156.327 111.18 154.202 112.881C152.235 114.455 150.401 116.207 147.728 116.699C145.605 117.09 143.611 116.812 141.729 116.003C138.538 114.632 135.408 113.112 132.303 111.553C129.525 110.159 126.557 109.465 123.577 110.034C121.656 110.401 119.848 111.595 118.112 112.624C116.007 113.873 114.125 115.516 111.976 116.672C108.279 118.66 104.308 118.743 100.23 117.929C95.9988 117.084 92.5146 115.019 89.5831 111.939C88.9315 111.255 88.3998 110.455 87.8281 109.697C87.7485 109.591 87.7562 109.42 87.7234 109.279C87.8402 109.339 87.9752 109.378 88.0711 109.461C91.1589 112.158 94.6894 113.827 98.7825 114.417C104.697 115.27 110.176 114.281 115.103 110.842C116.481 109.881 117.61 108.569 118.956 107.554C121.077 105.955 123.586 106.031 126.038 106.328C130.641 106.885 134.636 109.279 138.942 110.737C142.667 111.997 146.492 112.962 150.433 111.429C151.819 110.89 152.979 110.133 153.837 108.864C155.343 106.638 158.604 105.837 161.083 106.104C165.078 106.535 168.539 108.522 172.332 109.49C174.996 110.17 177.667 110.63 180.389 109.699C181.859 109.196 182.885 108.191 183.676 106.94C184.955 104.916 186.897 104.195 189.13 103.995C192.292 103.711 195.137 104.709 197.926 106.082C200.603 107.399 203.316 108.748 206.302 109.154C208.719 109.483 211.112 109.002 213.353 107.99C216.866 106.405 220.334 104.713 223.878 103.199C227.282 101.746 230.594 102.032 233.78 104.032C235.531 105.131 237.344 106.174 239.238 106.993C241.504 107.974 243.921 107.662 246.226 107.046C249.335 106.215 252.353 105.006 255.49 104.337C257.67 103.872 259.931 104.05 261.706 105.942C263.363 107.707 265.551 108.144 267.816 107.5C271.349 106.494 274.829 105.299 278.337 104.203C280.066 103.663 281.797 103.14 283.641 103.738C286.124 104.544 286.402 104.951 286.099 107.532C285.928 108.991 285.722 110.447 285.614 111.911C285.483 113.689 285.455 115.475 285.351 117.256C285.115 121.283 284.864 125.309 284.61 129.334C284.453 131.826 284.264 134.316 284.121 136.808C283.937 140 283.793 143.194 283.619 146.387C283.463 149.25 283.273 152.112 283.13 154.976C282.947 158.622 282.797 162.27 282.629 165.917C282.552 167.576 282.455 169.233 282.384 170.892C282.213 174.911 282.053 178.93 281.887 182.948C281.806 184.896 281.714 186.843 281.641 188.791C281.471 193.346 281.308 197.902 281.144 202.457C281.06 204.776 280.975 207.095 280.897 209.414C280.81 212.022 280.73 214.63 280.649 217.238C280.565 219.929 280.481 222.619 280.401 225.31C280.316 228.207 280.234 231.104 280.153 234.001C280.069 237.063 279.986 240.125 279.906 243.187C279.821 246.414 279.737 249.642 279.658 252.869C279.572 256.385 279.492 259.901 279.41 263.418C279.327 266.975 279.243 270.533 279.163 274.09C279.078 277.813 278.996 281.536 278.915 285.258L278.753 292.952C278.725 294.234 278.695 295.516 278.662 296.798C278.608 298.87 278.503 300.941 278.416 303.012C278.411 303.126 278.366 303.238 278.34 303.351C278.284 303.239 278.203 303.132 278.175 303.013C277.262 299.138 276.252 295.282 275.482 291.379C274.964 288.746 274.747 286.049 274.47 283.373C274.307 281.791 274.293 280.194 274.205 278.605C274.196 278.452 274.14 278.302 274.106 278.151C274.057 278.282 273.973 278.41 273.965 278.543C273.674 283.521 272.798 288.378 271.047 293.065C270.539 294.425 270.11 295.814 269.636 297.187C269.574 297.366 269.464 297.528 269.377 297.697C269.353 297.474 269.258 297.229 269.318 297.03C269.604 296.078 269.872 295.114 270.255 294.2C272.01 290 271.914 285.573 271.677 281.19C271.5 277.909 270.679 274.692 269.33 271.654C269.248 271.471 268.811 270.614 268.807 270.387C268.806 270.35 268.645 270.315 268.558 270.279C268.625 270.584 268.692 270.889 268.758 271.193C268.924 274.345 269.204 278.728 269.224 281.881C269.247 285.561 268.631 287.955 267.633 291.497C267.104 293.373 266.423 295.205 265.807 297.055C265.764 297.183 265.692 297.3 265.634 297.422C265.602 297.27 265.498 297.087 265.549 296.97C267.181 293.192 267.001 289.141 267.242 285.173C267.467 281.459 267.665 277.718 267.465 274.01C267.185 268.835 266.213 263.752 264.048 258.973C264 258.868 263.869 258.8 263.822 258.695C263.664 258.343 263.525 257.981 263.379 257.623C263.284 258.07 263.063 258.532 263.116 258.961C263.293 260.398 263.668 261.814 263.783 263.253C264.019 266.193 264.207 269.141 264.281 272.088C264.364 275.403 264.461 278.731 264.254 282.035C264.052 285.263 263.48 288.467 263.059 291.681C262.824 293.479 262.568 295.274 262.313 297.07C262.296 297.187 262.205 297.293 262.149 297.405C262.123 297.292 262.066 297.176 262.075 297.066C262.149 296.233 262.237 295.401 262.318 294.568C262.402 293.694 262.532 292.821 262.557 291.945C262.66 288.388 262.794 284.831 262.795 281.273C262.797 277.881 262.686 274.487 262.554 271.097C262.447 268.356 262.278 265.615 262.06 262.88C261.772 259.257 261.413 255.639 261.077 252.02C261.014 251.35 260.922 250.683 260.825 250.018C260.806 249.886 260.702 249.768 260.638 249.643C260.537 249.773 260.359 249.897 260.348 250.034C260.246 251.32 260.153 252.606 260.093 253.894C259.995 255.965 259.948 258.038 259.836 260.108C259.605 264.341 259.357 268.573 259.093 272.804C258.955 275.008 258.743 277.207 258.608 279.411C258.342 283.725 258.118 288.041 257.855 292.355C257.715 294.641 257.51 296.923 257.368 299.21C257.106 303.441 256.889 307.675 256.61 311.905C256.513 313.369 256.881 318.143 256.827 318.799C256.512 322.681 255.414 326.397 254.089 330.038C253.831 330.746 253.302 331.476 252.695 331.914C250.984 333.148 249.852 332.953 248.95 330.802C248.729 330.275 248.613 329.704 248.445 329.153C248.423 329.081 248.386 329.013 248.356 328.943C248.304 329.064 248.235 329.18 248.201 329.306C247.867 330.572 247.67 331.894 247.171 333.091C246.672 334.288 245.987 335.452 245.174 336.463C244.19 337.688 242.4 337.751 241.259 336.665C240.609 336.046 240.615 336.835 240.564 336.954C240.053 338.145 239.706 339.416 239.112 340.56C238.188 342.344 236.591 343.144 234.603 343.007C233.712 342.946 233.544 343.22 233.559 344.066C233.599 346.272 232.723 348.069 230.749 349.166C230.266 349.435 229.592 349.491 229.023 349.441C228.215 349.371 228.055 349.666 228.12 350.39C228.186 351.127 228.145 351.875 228.133 352.618C228.104 354.378 226.893 355.611 225.157 355.661C223.836 355.7 223.589 356.067 224.111 357.211C224.636 358.361 223.811 359.467 222.261 359.617C220.685 359.77 219.37 359.416 218.121 358.219C212.985 353.3 209.05 347.552 206.115 341.126C204.212 336.958 202.727 332.617 202.142 328.04C201.728 324.802 201.366 321.551 201.161 318.295C200.928 314.595 201.511 310.952 202.264 307.33C203.691 300.467 206.36 294.018 208.739 287.469C209.288 285.957 209.678 284.379 210.039 282.808C210.664 280.085 211.259 277.354 211.758 274.607C211.932 273.647 211.82 272.628 211.753 271.642C211.741 271.477 211.266 271.183 211.049 271.218C209.164 271.525 207.28 271.851 205.413 272.252C202.217 272.939 199.159 274.004 196.201 275.433C195.107 275.963 193.734 275.905 192.496 276.152C190.517 276.547 188.546 276.987 186.565 277.374C186.154 277.455 185.713 277.376 185.287 277.388C184.555 277.408 183.35 277.196 183.184 277.517C182.737 278.377 182.603 279.465 182.579 280.469C182.449 285.883 182.323 291.299 182.337 296.714C182.344 299.536 182.63 302.357 182.807 305.178C182.958 307.587 183.071 310.002 183.317 312.402C183.567 314.833 183.98 317.247 184.283 319.673C184.486 321.293 184.591 322.924 184.793 324.544C185.096 326.97 185.458 329.389 185.773 331.814C186.038 333.856 186.271 335.902 186.52 337.946C186.683 339.281 186.845 340.617 187.024 341.95C187.039 342.07 187.151 342.245 187.252 342.275C189.11 342.818 189.523 344.45 189.971 345.987C190.671 348.388 191.44 350.791 191.844 353.249C192.154 355.133 192.149 357.127 191.913 359.025C191.673 360.957 191.017 362.844 190.474 364.731C189.655 367.577 188.03 369.977 186.175 372.239C186.054 372.387 185.996 372.586 185.908 372.761C186.089 372.758 186.269 372.754 186.45 372.753C186.78 372.752 187.11 372.753 187.44 372.753H202.426C206.239 372.753 210.051 372.782 213.863 372.747C220.104 372.688 226.345 372.587 232.586 372.507C233.219 372.498 233.853 372.514 234.486 372.504C239.901 372.424 245.316 372.34 250.732 372.259C251.282 372.251 251.834 372.272 252.384 372.255C256.95 372.12 261.516 371.972 266.082 371.847C266.531 371.835 266.984 372.007 267.434 372.002C272.89 371.932 278.347 371.854 283.803 371.759C287.526 371.694 291.249 371.59 294.971 371.519C296.005 371.499 296.558 371.275 296.543 369.978C296.505 366.422 296.673 362.864 296.746 359.306C296.769 358.178 296.799 357.046 296.739 355.92C296.62 353.698 294.96 352.819 293.048 352.722C289.249 352.528 285.44 352.475 281.634 352.452C275.015 352.413 268.395 352.429 261.776 352.452C260.571 352.457 259.367 352.609 258.162 352.685C258.006 352.695 257.846 352.657 257.687 352.641C257.783 352.495 257.871 352.343 257.975 352.204C259.003 350.819 260.547 350.405 262.106 350.243C264.123 350.033 266.172 350.14 268.191 349.939C270.418 349.718 272.625 349.3 274.843 348.978C275.085 348.943 275.338 348.979 275.585 348.972C282.081 348.808 288.577 348.65 295.072 348.455C295.365 348.447 295.816 348.173 295.911 347.917C296.682 345.851 297.115 343.79 296.91 341.492C296.693 339.044 297.108 336.539 297.243 334.059C297.256 333.812 297.245 333.564 297.245 333.316C297.245 331.169 297.225 329.023 297.248 326.876C297.321 320.057 297.4 313.238 297.496 306.419C297.561 301.747 297.659 297.075 297.74 292.403C297.824 287.566 297.904 282.729 297.988 277.891C298.07 273.164 298.153 268.436 298.235 263.709L298.483 249.445C298.566 244.676 298.649 239.907 298.731 235.138C298.814 230.328 298.895 225.518 298.979 220.708C299.06 216.035 299.145 211.363 299.226 206.691C299.31 201.881 299.391 197.071 299.474 192.261C299.556 187.465 299.638 182.669 299.722 177.873C299.804 173.201 299.888 168.529 299.969 163.856C300.053 159.019 300.134 154.182 300.217 149.345L300.465 135.205C300.548 130.409 300.629 125.613 300.713 120.817C300.794 116.186 300.88 111.555 300.96 106.924C301.045 101.963 301.117 97.0017 301.211 92.0408C301.278 88.5102 301.356 84.9795 301.469 81.4502C301.493 80.7087 301.373 80.4142 300.515 80.4367C295.597 80.5658 290.676 80.6137 285.756 80.711C282.638 80.7726 279.521 80.875 276.404 80.954C273.011 81.04 269.619 81.1172 266.227 81.2033C263.123 81.2821 260.02 81.3702 256.917 81.4495C253.566 81.5351 250.215 81.6134 246.864 81.6985C243.719 81.7784 240.574 81.8656 237.43 81.9449C234.037 82.0305 230.645 82.1035 227.253 82.1957C224.644 82.2665 222.037 82.3732 219.429 82.4376C215.541 82.5335 211.653 82.5998 207.766 82.6907C204.662 82.7633 201.559 82.8573 198.456 82.9355C195.022 83.0221 191.588 83.0981 188.155 83.1852C185.093 83.2628 182.031 83.3527 178.969 83.4309C175.576 83.5175 172.184 83.5894 168.792 83.682C166.225 83.7521 163.659 83.8605 161.091 83.9236C157.163 84.0202 153.233 84.0864 149.305 84.1768C146.118 84.2502 142.933 84.3418 139.747 84.4222C136.396 84.5068 133.045 84.5854 129.694 84.6711C126.59 84.7504 123.487 84.8389 120.384 84.9172C116.95 85.0037 113.517 85.1124 110.083 85.1598C102.686 85.2619 95.2887 85.4124 87.8925 85.3749C84.7738 85.359 81.6535 84.9565 78.5412 84.6547C76.9013 84.4957 75.2769 84.1763 73.6463 83.9243C73.5353 83.9072 73.4308 83.8483 73.3233 83.8088C73.4258 83.7657 73.5252 83.7109 73.6316 83.6835C73.709 83.6635 73.7958 83.6812 73.8783 83.6793C77.3945 83.597 80.9115 83.5397 84.4266 83.4253C88.6526 83.2878 92.8772 83.1068 97.102 82.9338C98.7198 82.8675 100.336 82.7541 101.954 82.6927C104.52 82.5953 107.087 82.5297 109.653 82.4391C111.725 82.366 113.796 82.2709 115.867 82.1943C120.423 82.0259 124.978 81.8683 129.533 81.6952C131.275 81.6291 133.015 81.5131 134.756 81.4546C137.694 81.356 140.633 81.2933 143.571 81.1998C145.725 81.1312 147.878 81.0313 150.032 80.9564C152.599 80.8671 155.166 80.7967 157.732 80.7048C159.721 80.6336 161.709 80.5243 163.699 80.4634C166.884 80.3658 170.071 80.3011 173.256 80.2094C175.741 80.1379 178.224 80.0428 180.709 79.9649C183.481 79.8781 186.255 79.7988 189.028 79.7162C191.801 79.6337 194.574 79.5492 197.347 79.4691C200.285 79.3842 203.223 79.3046 206.162 79.2205C208.99 79.1395 211.819 79.0517 214.647 78.9742C217.833 78.887 221.019 78.8084 224.205 78.7253C227.35 78.6433 230.494 78.5586 233.639 78.4782C236.949 78.3935 240.258 78.3134 243.568 78.2298C246.795 78.1483 250.024 78.0938 253.249 77.9729C255.712 77.8806 258.17 77.6937 260.632 77.574C260.996 77.5563 261.368 77.7316 261.735 77.7265C266.82 77.6559 271.905 77.5773 276.99 77.4843C280.795 77.4148 284.6 77.3186 288.406 77.24C292.582 77.1538 296.759 77.0456 300.936 77.0003ZM220.78 401.259C218.204 401.325 215.632 401.565 213.059 401.736C210.651 401.896 208.242 402.049 205.835 402.234C202.841 402.465 199.848 402.724 196.856 402.974C193.904 403.22 190.953 403.487 188 403.712C184.472 403.98 180.944 404.318 177.41 404.435C172.04 404.612 166.665 404.628 161.292 404.705C160.095 404.722 158.891 404.791 157.702 404.691C154.286 404.406 150.876 404.043 147.462 403.718C145.633 403.544 143.799 403.408 141.972 403.216C139.011 402.904 136.061 402.435 133.093 402.266C130.198 402.101 127.287 402.199 124.384 402.24C122.106 402.273 119.827 402.354 117.553 402.487C113.939 402.699 110.328 402.968 106.716 403.223C103.309 403.463 99.9038 403.715 96.4981 403.965C94.2961 404.126 92.0945 404.295 89.8927 404.459C86.5694 404.708 83.2461 404.955 79.9228 405.203C77.721 405.367 75.5195 405.537 73.3174 405.697C69.8705 405.948 66.424 406.205 62.9758 406.437C60.2387 406.621 57.4985 406.759 54.7612 406.941C53.2137 407.044 52.7307 407.573 52.7693 409.156C52.7906 410.032 52.9284 410.904 53.0052 411.778C53.3374 415.563 53.6408 419.35 54.0131 423.13C54.12 424.215 54.2343 425.432 55.3759 425.982C56.0547 426.31 56.877 426.482 57.6337 426.479C59.9525 426.469 62.2704 426.288 64.5895 426.269C69.1437 426.231 73.6986 426.286 78.2529 426.252C86.4328 426.191 94.6124 426.092 102.792 426.011C103.549 426.004 104.307 426.022 105.063 426.008C109.281 425.93 113.498 425.816 117.715 425.768C126.803 425.666 135.891 425.584 144.979 425.52C149.45 425.488 153.923 425.542 158.395 425.508C166.409 425.448 174.424 425.349 182.439 425.268C183.237 425.26 184.036 425.279 184.834 425.265C189.051 425.187 193.268 425.073 197.485 425.025C206.573 424.923 215.661 424.841 224.749 424.777C229.179 424.745 233.61 424.799 238.041 424.765C246.097 424.704 254.153 424.606 262.209 424.525C263.007 424.517 263.806 424.535 264.604 424.522C269.647 424.443 274.689 424.338 279.732 424.283C283.199 424.246 286.667 424.303 290.134 424.27C296.869 424.207 303.604 424.114 310.339 424.026C311.816 424.007 312.937 422.951 313.092 421.386C313.442 417.851 313.758 414.313 314.089 410.528C314.171 409.242 314.303 407.956 314.326 406.669C314.357 404.712 313.373 403.961 311.434 404.198C307.689 404.657 303.942 405.291 300.183 405.391C294.61 405.539 289.025 405.324 283.447 405.185C280.83 405.12 278.216 404.898 275.604 404.7C272.732 404.483 269.864 404.223 266.996 403.961C264.455 403.729 261.918 403.465 259.378 403.222L254.136 402.717C252.388 402.55 250.64 402.387 248.891 402.237C245.653 401.958 242.413 401.681 239.168 401.503C236.276 401.344 233.377 401.286 230.48 401.249C227.247 401.207 224.011 401.176 220.78 401.259ZM136.235 377.583C133.768 377.707 131.302 377.843 128.834 377.952C126.598 378.05 124.361 378.119 122.125 378.203C119.93 378.285 117.735 378.371 115.54 378.45C110.902 378.617 106.264 378.778 101.627 378.947C99.5139 379.023 97.402 379.124 95.289 379.19C92.2275 379.285 89.1648 379.345 86.1035 379.448C84.7741 379.492 83.4388 379.541 82.1213 379.708C80.8506 379.869 79.609 380.296 78.3374 380.404C76.7463 380.538 75.1084 380.574 74.0387 378.974C73.9615 378.858 73.3568 378.914 73.3478 378.96C72.7762 381.859 70.8803 383.923 68.922 385.919C67.3205 387.552 65.5963 389.064 63.962 390.665C61.9032 392.682 59.8159 394.677 57.8633 396.795C56.4125 398.368 55.153 400.118 53.8192 401.798C53.6868 401.965 53.6308 402.193 53.5394 402.392C53.7753 402.421 54.012 402.48 54.2468 402.473C56.731 402.398 59.2152 402.32 61.6989 402.228C63.6054 402.157 65.5106 402.052 67.4172 401.985C70.1072 401.891 72.7999 401.856 75.4878 401.722C77.5279 401.621 79.5611 401.386 81.5996 401.243C85.3353 400.982 89.0732 400.753 92.809 400.493C94.8886 400.348 96.9707 400.212 99.0428 399.989C101.677 399.707 104.3 399.317 106.932 399.018C108.758 398.811 110.595 398.7 112.423 398.51C115.425 398.197 118.418 397.769 121.427 397.553C123.536 397.402 125.665 397.492 127.783 397.533C129.855 397.573 131.935 397.598 133.995 397.795C136.386 398.024 138.758 398.448 141.142 398.758C143.224 399.028 145.317 399.222 147.396 399.514C150.079 399.891 152.751 400.342 155.431 400.736C156.118 400.837 156.82 400.842 157.515 400.891C156.947 400.307 156.435 399.651 155.8 399.152C152.625 396.657 150.034 393.589 147.68 390.375C145.542 387.457 143.819 384.232 141.937 381.128C140.653 379.012 139.143 377.277 136.235 377.583ZM295.281 375.954C293.302 376.143 291.306 376.154 289.317 376.217C286.255 376.314 283.193 376.393 280.131 376.467C276.409 376.557 272.687 376.657 268.964 376.711C262.187 376.811 255.41 376.883 248.633 376.963C247.71 376.973 246.788 376.95 245.866 376.966C241.483 377.044 237.1 377.129 232.469 377.212H207.121C199.401 377.212 191.682 377.18 183.963 377.245C182.73 377.255 181.495 377.715 180.891 379.007C179.826 381.289 178.875 383.63 177.717 385.864C174.982 391.136 171.113 395.54 166.755 399.507C165.838 400.341 166.463 400.612 166.974 400.699C167.911 400.857 168.898 400.803 169.856 400.733C172.811 400.515 175.762 400.253 178.714 400C181.542 399.757 184.37 399.498 187.199 399.26C190.233 399.003 193.269 398.769 196.303 398.513C199.132 398.274 201.957 397.981 204.789 397.781C208.812 397.497 212.837 397.238 216.865 397.044C218.815 396.951 220.776 396.968 222.727 397.043C225.592 397.152 228.454 397.342 231.315 397.528C234.846 397.758 238.375 398.019 241.906 398.267C244.273 398.433 246.64 398.596 249.007 398.763C252.496 399.009 255.985 399.257 259.474 399.506C261.758 399.669 264.043 399.839 266.328 400C268.736 400.169 271.145 400.328 273.553 400.497C275.838 400.658 278.121 400.846 280.407 400.987C283.392 401.171 286.38 401.465 289.366 401.451C293.22 401.433 297.08 401.259 300.923 400.961C304.396 400.692 307.851 400.178 311.31 399.748C313.106 399.525 313.776 398.197 312.845 396.68C309.389 391.049 305.88 385.452 302.458 379.801C300.798 377.061 298.567 375.64 295.281 375.954ZM158.163 240.235C157.988 240.737 157.867 241.267 157.627 241.736C156.807 243.339 155.933 244.914 155.1 246.511C153.192 250.169 151.298 253.778 147.822 256.344C145.558 258.015 142.904 259.267 141.288 261.767C140.811 262.504 139.973 263.004 139.478 263.733C138.592 265.038 137.885 266.463 137.027 267.788C133.701 272.924 130.661 278.196 128.886 284.108C127.512 288.688 126.534 293.33 126.585 298.135C126.611 300.619 126.669 303.107 126.845 305.585C126.99 307.634 127.316 309.671 127.586 311.71C127.981 314.681 128.468 317.641 128.77 320.62C128.894 321.845 128.505 323.116 128.586 324.351C128.727 326.484 128.932 328.628 129.325 330.728C130.075 334.731 130.929 338.717 131.827 342.691C132.746 346.757 133.796 350.794 134.743 354.854C136.193 361.068 138.311 367.047 141.105 372.776C143.922 378.554 147.282 384.02 151.099 389.187C152.921 391.654 154.819 394.11 156.988 396.264C159.4 398.661 162.547 399.131 165.081 396.273C166.639 394.516 168.118 392.683 169.55 390.821C172.675 386.76 175.749 382.659 178.837 378.571C178.947 378.425 178.996 378.233 179.073 378.063C178.882 378.027 178.691 377.986 178.499 377.956C177.024 377.728 175.512 377.638 174.081 377.251C169.375 375.975 165.593 373.033 161.787 370.174C158.187 367.471 154.648 364.687 151.065 361.961C150.494 361.526 149.959 361.515 149.528 362.289C148.35 364.407 147.119 366.496 145.888 368.584C145.683 368.931 145.376 369.218 145.116 369.533C144.798 369.145 144.416 368.793 144.173 368.362C143.262 366.743 144.184 365.246 144.633 363.77C145.58 360.656 146.282 357.527 146.15 354.244C146.036 351.39 145.885 348.532 145.928 345.679C145.958 343.74 146.668 341.834 148.341 340.822C149.615 340.051 149.429 339.152 149.306 338.158C148.865 334.596 148.135 331.054 147.933 327.482C147.673 322.876 147.79 318.247 148.621 313.427C148.703 312.885 148.756 312.336 148.874 311.801C149.421 309.306 149.859 306.777 150.575 304.33C151.561 300.956 152.702 297.623 153.894 294.314C154.577 292.416 157.762 285.978 157.533 287.909C157.438 288.972 156.105 294.134 155.326 296.609C154.118 300.449 152.917 304.298 151.907 308.193C150.688 312.901 149.774 317.679 149.865 322.581C149.915 325.231 149.988 327.881 150.118 330.528C150.229 332.774 150.434 335.015 150.604 337.258C150.662 338.018 151.213 338.582 151.633 338.319C152.421 337.824 153.201 337.315 153.978 336.803C157.896 334.218 161.358 331.1 164.561 327.688C165.175 327.035 165.937 326.339 166.156 325.534C166.797 323.178 167.257 320.768 167.676 318.359C168.014 316.413 168.189 314.439 168.437 312.478C168.85 309.223 169.424 305.977 169.612 302.709C169.717 300.892 169.135 299.042 168.946 297.199C168.759 295.386 168.774 293.549 168.528 291.746C168.165 289.073 167.765 286.393 167.16 283.767C166.733 281.917 166.23 279.973 165.251 278.385C163.265 275.163 160.802 272.236 158.787 269.029C157.221 266.537 155.862 263.814 155.611 260.836C155.362 257.871 155.454 254.862 155.627 251.886C155.671 251.113 156.429 250.029 157.128 249.742C157.867 249.438 158.485 250.364 158.786 251.204C159.236 252.46 159.747 253.695 160.234 254.938C160.285 255.068 160.35 255.192 160.408 255.319C160.442 255.168 160.513 255.014 160.501 254.867C160.486 254.68 160.396 254.5 160.352 254.313C159.716 251.597 158.968 248.911 158.993 246.07C159.006 244.654 158.71 243.233 158.521 241.818C158.449 241.284 158.285 240.763 158.163 240.235ZM128.754 350.444C127.431 350.578 126.101 350.636 124.772 350.704C122.95 350.798 121.127 350.88 119.304 350.953C115.081 351.123 110.858 351.285 106.387 351.45C102.906 351.615 99.427 351.821 95.9447 351.935C91.9777 352.064 88.008 352.161 84.0393 352.168C82.5782 352.17 81.1147 351.893 79.6558 351.715C77.6961 351.476 75.7462 351.096 73.7802 350.985C71.5145 350.857 70.8689 351.597 70.8391 353.866C70.7818 358.239 70.7121 362.614 72.0858 366.845C72.6398 368.552 73.0268 370.374 73.9126 371.897C75.2391 374.179 77.6131 375.18 80.1439 375.182C84.821 375.185 89.4983 374.902 94.1754 374.734C96.3285 374.657 98.4811 374.568 100.634 374.487C105.105 374.321 109.576 374.16 114.047 373.99C116.035 373.915 118.022 373.801 120.01 373.749C123.937 373.648 127.865 373.584 131.792 373.494L132.079 373.487C134.084 373.437 136.071 373.389 137.251 375.573C137.356 375.766 137.955 375.692 138.324 375.742C138.35 375.426 138.492 375.06 138.382 374.802C137.422 372.558 136.425 370.33 135.424 368.104C132.981 362.674 131.205 357.021 129.795 351.247C129.662 350.701 129.424 350.377 128.754 350.444ZM163.105 335.884C160.175 337.393 157.245 338.918 154.432 340.63C153.179 341.392 152.053 342.5 151.161 343.673C150.471 344.579 150.228 345.828 149.8 346.929C148.68 349.815 149.581 352.451 151.153 354.786C153.606 358.429 156.369 361.856 159.77 364.692C161.864 366.437 177.11 376.966 182.745 372.186C183.527 371.523 183.858 370.508 184.314 369.618C186.178 365.978 189.187 362.898 189.814 358.659C190.065 356.964 190.288 355.216 190.145 353.525C189.98 351.567 189.389 349.646 189 347.705C188.745 346.43 188.672 345.078 187.401 344.284C187.239 344.183 187.062 344.107 186.892 344.019C186.85 344.208 186.747 344.408 186.777 344.585C187.159 346.798 187.385 348.998 188.152 351.186C189.075 353.819 188.598 356.656 187.518 359.304C187.038 360.481 185.378 361.043 184.244 360.906C181.084 360.525 178.457 358.975 176.168 356.823C172.935 353.785 170.921 349.99 169.304 345.753C168.933 344.669 168.576 343.579 168.186 342.502C167.538 340.708 166.952 338.885 166.181 337.144C165.574 335.772 164.312 335.262 163.105 335.884ZM218.541 217.987C218.642 218.298 218.685 218.646 218.854 218.914C219.867 220.521 221.08 220.795 221.907 222.49C223.815 226.398 225.236 229.249 226.909 233.262C227.557 234.814 227.623 236.839 228.161 239.404C228.181 239.499 228.465 239.768 228.67 239.888C229.731 240.509 230.881 241.006 231.859 241.736C234.659 243.825 235.555 246.129 234.705 249.102C233.206 254.347 231.425 251.725 232.493 248.595C232.927 247.323 232.603 246.023 231.6 245.097C231.265 244.788 229.765 244.033 227.914 243.172C227.738 243.09 227.866 243.66 227.119 245.169C226.896 245.62 226.029 246.922 225.783 246.261C225.361 245.131 226.142 242.363 225.783 242.203L225.398 242.032C222.451 240.725 219.499 239.506 219.137 239.461C218.035 239.325 217.013 239.864 217.003 241.832C216.978 246.651 215.067 250.545 211.403 253.614C208.146 256.343 204.514 257.769 200.16 257.099C196.97 256.609 194.249 255.274 191.887 253.143C189.806 251.265 188.228 249.045 187.518 246.289C187.348 245.627 187.164 245.67 186.708 246.092C184.436 248.197 182.933 250.758 182.082 253.717C181.981 254.069 181.959 254.444 181.901 254.808C182.289 254.774 182.693 254.796 183.064 254.696C184.136 254.405 185.195 254.063 186.259 253.744C186.398 253.703 186.541 253.677 186.682 253.644C186.628 253.763 186.562 253.878 186.522 254.002C186.026 255.528 184.926 256.487 183.477 256.996C181.859 257.565 179.404 255.992 179.864 254.368C180.193 253.205 180.772 252.102 181.324 251.015C182.278 249.137 183.298 247.291 184.414 245.432C184.52 245.125 184.626 244.818 184.731 244.511C184.502 244.735 184.272 244.96 183.919 245.184C183.744 245.442 183.616 245.756 183.386 245.949C180.204 248.631 176.653 250.093 172.366 249.686C169.919 249.454 167.79 248.596 165.775 247.334C164.072 246.268 162.241 246.912 162.047 248.893C161.911 250.275 162.054 251.753 162.404 253.102C163.539 257.472 164.754 261.798 166.619 265.966C167.991 269.033 169.904 271.156 173.023 272.165C175.36 272.922 177.722 273.671 180.13 274.123C183.02 274.666 185.953 274.646 188.864 273.949C190.981 273.442 193.15 273.152 195.272 272.664C197.333 272.191 199.484 271.853 201.385 270.991C206.006 268.894 214.231 262.013 217.945 258.591C218.121 258.429 218.295 258.266 218.47 258.103C218.505 258.337 218.584 258.573 218.568 258.803C218.426 260.954 213.009 266.091 211.073 267.025C210.702 267.204 210.6 267.94 210.374 268.419C210.787 268.601 211.196 268.914 211.615 268.929C212.09 268.946 212.571 268.672 213.059 268.576C213.194 268.55 213.486 268.69 213.501 268.785C213.618 269.53 213.745 270.282 213.756 271.033C213.789 273.152 213.809 275.273 213.745 277.39C213.723 278.11 213.515 278.851 213.26 279.534C211.55 284.108 209.701 288.634 208.101 293.245C206.645 297.44 205.281 301.682 204.189 305.983C203.401 309.087 202.829 312.308 202.692 315.5C202.503 319.934 202.427 324.386 203.317 328.82C204.301 333.726 206.168 338.223 208.831 342.393C211.717 346.914 214.722 351.361 217.771 355.775C218.525 356.866 219.313 358.037 220.643 358.6C220.983 358.744 221.872 358.573 222.357 358.282C222.892 357.96 223.067 357.402 222.71 356.658C221.488 354.114 220.367 351.521 219.219 348.942C217.542 345.178 215.859 341.418 214.209 337.643C211.36 331.128 210.26 324.224 210.113 317.197C210.027 313.096 210.512 308.98 210.809 304.876C210.981 302.496 211.201 300.113 211.558 297.756C212.144 293.89 212.92 290.053 213.504 286.187C214.136 282 215.198 277.954 217.297 274.259C218.872 271.486 220.928 269.079 223.911 267.746C227.515 266.136 230.91 264.345 233.425 261.123C235.768 258.123 237.19 254.779 237.51 251.053C237.929 246.168 236.783 241.623 233.822 237.614C231.334 234.245 228.972 230.806 227.119 227.019C225.244 223.189 223.105 220.739 219.313 218.401C219.065 218.248 218.799 218.124 218.541 217.987ZM156.947 251.9C156.814 252.281 156.583 252.656 156.562 253.042C156.369 256.604 156.891 260.106 158.082 263.431C159.102 266.281 160.329 269.118 162.385 271.421C164.01 273.241 165.086 275.528 167.141 276.984C167.323 277.113 167.368 277.459 167.443 277.714C168.104 279.952 168.826 282.175 169.394 284.436L169.545 285.043C170.019 286.966 170.424 288.913 170.176 290.93C170.141 291.215 170.143 291.511 170.175 291.796C170.582 295.382 170.985 298.969 171.413 302.553C171.762 305.472 170.715 308.221 170.409 311.059C170.215 312.862 169.948 314.657 169.669 316.449C169.368 318.381 169.043 320.31 168.677 322.23C168.299 324.213 168.033 326.244 167.377 328.135C167.017 329.173 167.138 329.925 167.492 330.826C168.247 332.743 168.914 334.695 169.683 336.606C171.477 341.065 173.188 345.562 175.165 349.939C176.667 353.267 179.292 355.54 182.867 356.591C184.6 357.101 186.158 356.494 186.452 355.073C186.594 354.391 186.514 353.619 186.355 352.929C186.196 352.241 185.632 351.622 185.564 350.941C185.38 349.086 185.363 347.215 185.282 345.35C185.268 345.023 185.289 344.693 185.255 344.369C185.022 342.114 184.763 339.863 184.543 337.607C184.343 335.563 184.23 333.51 183.99 331.472C183.732 329.284 183.336 327.113 183.065 324.927C182.911 323.69 182.948 322.43 182.791 321.194C182.508 318.971 182.057 316.768 181.834 314.541C181.507 311.266 181.29 307.979 181.078 304.694C180.876 301.545 180.655 298.393 180.595 295.24C180.513 290.906 180.504 286.569 180.614 282.237C180.652 280.781 181.097 279.323 181.462 277.893C181.616 277.288 181.566 277.196 180.936 277.114C178.917 276.85 176.886 276.591 174.909 276.122C171.615 275.341 168.932 273.574 167.21 270.591C165.386 267.432 163.648 264.224 161.749 260.914C161.34 260.339 160.9 259.785 160.529 259.187C159.841 258.08 159.096 256.993 158.561 255.813C158.153 254.915 158.084 253.869 157.762 252.923C157.629 252.535 157.227 252.238 156.947 251.9ZM214.658 213.473C214.543 213.485 214.43 213.519 214.316 213.542C214.397 213.659 214.454 213.812 214.564 213.887C215.947 214.828 217.349 215.742 218.723 216.695C221.754 218.798 224.358 220.112 226.391 223.194C228.909 227.011 231.378 230.862 233.825 234.725C236.162 238.413 238.362 242.115 238.85 246.654C239.173 249.652 239.012 252.539 238.123 255.346C236.122 261.662 231.887 266.104 225.832 268.589C221.568 270.339 219.078 273.509 217.527 277.55C216.609 279.943 216.045 282.484 215.475 284.994C214.743 288.215 214.1 291.46 213.541 294.716C213.106 297.244 212.812 299.8 212.54 302.352C212.165 305.884 211.639 309.422 211.602 312.961C211.563 316.612 211.899 320.283 212.325 323.916C212.651 326.687 213.208 329.457 213.951 332.149C216.004 339.584 219.826 346.24 223.435 352.979C224.03 354.089 225.251 354.351 225.965 353.412C226.389 352.853 226.636 351.845 226.445 351.189C225.476 347.848 224.247 344.583 223.279 341.242C221.77 336.037 220.399 330.793 218.969 325.317C218.887 325.228 218.746 325.148 218.73 325.048C218.389 322.875 218.028 320.704 217.739 318.524C217.375 315.776 216.83 313.024 216.796 310.267C216.745 306.129 216.877 301.965 217.298 297.85C217.62 294.697 218.346 291.557 219.181 288.491C220.665 283.043 223.047 277.973 226.418 273.421C227.747 271.626 229.221 269.931 230.713 268.266C232.532 266.237 234.706 264.474 236.252 262.264C239.202 258.047 240.472 253.142 240.716 248.051C240.844 245.368 240.726 242.602 240.201 239.977C239.496 236.45 238.457 232.965 237.261 229.568C235.367 224.188 232.478 219.434 227.777 215.952C223.857 213.047 219.53 212.944 214.658 213.473ZM216.072 206.595C214.037 206.536 211.985 208.263 209.945 208.541C209.864 208.552 209.726 208.954 209.789 209.098C210.375 210.437 211.573 211.151 212.86 211.449C215.257 212.003 217.708 211.095 220.14 211.494C225.889 212.436 230.191 215.81 233.77 220.069C236.759 223.626 238.753 227.848 239.912 232.36C240.78 235.744 241.644 239.187 241.919 242.65C242.217 246.408 242.166 250.21 241.314 253.988C240.287 258.54 238.374 262.546 235.218 265.959C233.58 267.73 231.855 269.42 230.241 271.211C227.929 273.777 226.057 276.657 224.417 279.692C222.593 283.066 221.14 286.585 220.06 290.272C218.85 294.405 218.102 298.63 218.039 302.908C217.989 306.351 218.391 309.81 218.748 313.246C219.028 315.937 219.434 318.627 219.985 321.276C220.97 326.009 222.021 330.733 223.208 335.42C224.137 339.088 225.269 342.721 227.128 346.046C227.572 346.838 228.469 347.78 229.258 347.883C230.526 348.048 232.439 344.912 232.089 343.64C231.599 341.861 231.107 340.084 230.611 338.307C228.984 332.478 228.24 326.485 227.967 320.485C227.74 315.494 228.107 310.464 228.423 305.464C228.616 302.402 229.07 299.338 229.657 296.323C230.321 292.917 231.283 289.571 232.081 286.19C233.051 282.086 235.288 278.518 236.908 274.69C238.691 270.475 240.622 266.32 242.299 262.063C243.691 258.53 244.499 254.829 245.026 251.043C245.469 247.868 245.696 244.686 245.161 241.573C244.563 238.092 243.561 234.667 242.553 231.272C241.196 226.699 239.616 222.186 239.777 217.07C239.873 214.93 238.57 213.604 237.009 212.498C234.442 210.681 231.436 209.816 228.516 208.796C224.493 207.39 220.307 206.718 216.072 206.595ZM125.846 332.263C124.536 334.599 123.272 336.96 121.868 339.437C121.694 339.776 121.519 340.115 121.345 340.455C120.522 342.072 119.151 343.54 120.3 345.616C120.546 346.061 120.609 346.29 121.142 346.259C123.042 346.149 124.958 346.189 126.838 345.946C127.535 345.856 128.513 345.267 128.716 344.682C128.99 343.892 128.688 342.878 128.545 341.975C128.344 340.711 128.041 339.464 127.822 338.203C127.705 337.536 127.632 336.856 127.611 336.179C127.568 334.84 127.7 333.528 126.735 332.33C126.279 331.765 126.088 331.83 125.846 332.263ZM241.516 219.513C241.669 221.179 241.628 222.901 242.056 224.495C243.058 228.23 244.348 231.886 245.409 235.606C246.282 238.669 247.012 241.778 246.951 244.998C246.921 246.575 246.791 248.15 246.713 249.726C246.536 253.298 245.585 256.711 244.546 260.099C242.434 266.99 239.024 273.334 236.182 279.919C234.944 282.787 233.936 285.784 233.135 288.805C232.27 292.068 231.68 295.414 231.134 298.751C230.673 301.565 230.2 304.415 230.167 307.254C230.098 313.212 229.82 319.187 230.605 325.131C230.895 327.334 231.107 329.548 231.355 332.005C231.768 334.724 232.101 337.46 232.647 340.152C232.789 340.849 233.508 341.837 234.112 341.96C236.094 342.364 237.703 341.42 238.521 339.542C239.768 336.681 240.687 333.837 239.846 330.547C239.032 327.366 238.706 324.049 238.312 320.774C237.886 317.234 237.508 313.68 237.332 310.121C237.137 306.166 237.173 302.184 238.068 298.299C238.732 295.419 239.488 292.544 240.456 289.754C242.193 284.743 244.313 279.859 245.922 274.81C248.054 268.121 249.128 261.187 249.65 254.192C249.862 251.345 249.65 248.469 249.693 245.607C249.757 241.457 249.427 237.342 248.687 233.262C248.229 230.735 247.848 228.182 247.17 225.713C246.398 222.905 244.766 220.644 242.15 219.146C241.449 218.745 241.468 218.994 241.516 219.513ZM248.785 224.905C248.837 225.224 248.89 225.544 248.942 225.987C249.52 229.256 250.252 232.507 250.635 235.799C251.062 239.473 251.308 243.181 251.375 246.879C251.428 249.778 251.179 252.693 250.899 255.586C250.592 258.768 250.276 261.968 249.642 265.096C248.769 269.403 247.772 273.703 246.496 277.905C245.346 281.693 243.786 285.361 242.339 289.055C239.747 295.673 238.5 302.512 238.779 309.623C238.826 310.818 238.69 312.026 238.805 313.212C239.076 316.011 239.409 318.806 239.79 321.593C240.039 323.41 240.479 325.202 240.717 327.02C240.97 328.959 241.407 330.96 241.152 332.851C240.978 334.135 241.563 334.901 241.938 335.849C242.039 336.105 242.586 336.29 242.943 336.319C243.922 336.4 245.466 334.982 245.975 333.7C247.26 330.467 247.585 327.053 247.651 323.643C247.69 321.605 247.163 319.561 246.971 317.512C246.696 314.571 246.233 311.614 246.329 308.679C246.444 305.12 246.912 301.553 247.498 298.034C248.037 294.799 248.659 291.528 249.728 288.44C252.293 281.029 253.825 273.453 254.131 265.632C254.288 261.624 254.336 257.611 254.376 253.6C254.39 252.274 254.213 250.946 254.147 249.617C254.052 247.712 254.096 245.792 253.87 243.903C253.466 240.507 253.157 237.066 252.333 233.762C251.633 230.96 250.263 228.325 249.19 225.492C249.055 225.296 248.92 225.101 248.785 224.905ZM254.971 237.793C254.86 237.953 254.694 238.101 254.653 238.277C254.597 238.512 254.62 238.771 254.642 239.017C254.885 241.679 255.204 244.337 255.363 247.005C255.531 249.813 255.537 252.631 255.639 255.443C255.657 255.948 255.795 256.448 255.878 257.198C255.795 259.351 255.775 261.509 255.616 263.656C255.335 267.444 255.19 271.261 254.577 274.998C253.961 278.758 253.054 282.502 251.898 286.134C249.967 292.197 248.374 298.323 248.002 304.677C247.798 308.175 248.053 311.706 248.216 315.217C248.386 318.888 248.67 322.554 248.957 326.217C249.045 327.346 249.163 328.512 249.539 329.564C249.814 330.336 250.532 330.95 251.052 331.634C251.742 330.942 252.673 330.366 253.07 329.534C253.806 327.994 254.372 326.336 254.747 324.669C255.187 322.716 255.528 320.705 255.573 318.712C255.609 317.129 254.986 315.541 254.92 313.944C254.803 311.129 254.791 308.301 254.912 305.486C255.049 302.323 255.32 299.163 255.647 296.014C255.982 292.793 256.478 289.589 256.863 286.373L257.24 283.232C257.552 280.615 257.853 277.996 258.087 275.371C258.352 272.395 258.551 269.403 258.574 266.417C258.606 262.449 258.477 258.478 258.34 254.511C258.251 251.936 258.084 249.36 257.844 246.794C257.561 243.77 256.676 240.906 255.233 238.224C255.153 238.076 255.059 237.936 254.971 237.793ZM314.025 309.637C316.254 310.153 318.492 310.634 320.739 311.06C322.017 311.303 323.323 311.404 324.74 311.57C327.898 311.817 330.927 312.2 333.966 312.284C339.686 312.442 345.26 311.509 350.651 309.557C350.721 309.532 350.767 309.396 350.827 309.394C351.351 309.379 351.876 309.383 352.4 309.381C352.05 309.698 351.741 310.084 351.344 310.32C348.374 312.081 345.208 313.231 341.777 313.847C337.961 314.532 334.132 314.43 330.341 314.217C326.167 313.981 322.006 313.382 317.896 312.376C314.41 311.523 311.056 310.387 307.746 309.06C307.538 308.976 307.355 308.831 307.16 308.714C307.35 308.675 307.541 308.641 307.73 308.596C309.976 308.064 311.947 309.157 314.025 309.637ZM315.962 278.145C317.322 278.642 318.672 279.167 320.008 279.725C320.817 280.062 321.595 280.475 322.449 280.916C326.286 282.638 330.167 283.879 334.253 284.624C338.151 285.335 342.051 285.432 345.954 285.261C348.405 285.153 350.832 284.534 353.273 284.16C353.571 284.114 353.883 284.164 354.189 284.17C354.004 284.457 353.886 284.858 353.623 285.012C351.031 286.528 348.285 287.553 345.25 287.804C337.978 288.403 331.165 286.586 324.611 283.746C321.529 282.41 318.686 280.52 315.746 278.861C315.496 278.721 315.334 278.425 315.131 278.201C315.41 278.177 315.724 278.058 315.962 278.145ZM123.948 278.155C123.746 278.605 123.569 279.07 123.335 279.503C122.857 280.387 122.077 281.189 122.375 282.304C122.828 284.001 123.35 285.679 123.864 287.359C123.889 287.443 124.224 287.522 124.23 287.509C124.367 287.239 124.478 286.956 124.593 286.427C124.825 286.03 124.984 285.553 125.307 285.256C125.749 284.849 125.807 284.533 125.609 283.952C125.104 282.471 124.723 280.947 124.295 279.44C124.174 279.013 124.064 278.583 123.948 278.155ZM126.712 271.702C126.584 271.845 126.412 271.969 126.334 272.136C125.869 273.134 125.292 274.105 125.003 275.154C124.379 277.422 125.456 279.529 125.832 281.703C125.997 281.627 126.246 281.595 126.314 281.468C127.029 280.123 127.776 278.79 128.378 277.395C128.591 276.901 128.58 276.201 128.412 275.678C128.172 274.927 127.694 274.253 127.318 273.299C127.235 272.963 127.176 272.62 127.062 272.296C126.987 272.083 126.831 271.899 126.712 271.702ZM129.59 260.047C129.494 260.304 129.308 260.563 129.314 260.817C129.359 262.655 128.85 264.342 128.19 266.044C127.775 267.113 127.54 268.237 127.722 269.529C127.917 270.908 128.811 271.668 129.437 272.674C129.72 273.129 130.127 273.506 130.477 273.918C130.787 273.505 131.096 273.093 131.529 272.556C132.024 271.648 132.542 270.752 133.009 269.83C134.047 267.784 134.036 267.779 132.394 265.987C132.261 265.841 132.14 265.682 132.025 265.522C131 264.086 130.43 262.472 130.105 260.75C130.057 260.492 129.768 260.28 129.59 260.047ZM133.111 251.9C132.995 252.099 132.868 252.293 132.764 252.498C132.266 253.485 131.872 254.542 131.257 255.45C130.306 256.855 130.971 258.165 131.288 259.502C131.86 261.913 132.632 264.241 134.298 266.162C134.683 266.605 134.679 266.609 135.121 265.744C135.936 264.599 136.722 263.432 137.578 262.318C137.978 261.797 138.336 261.47 137.672 260.813C136.926 260.076 136.21 259.217 135.775 258.276C134.898 256.38 134.224 254.39 133.455 252.443C133.378 252.247 133.228 252.08 133.111 251.9ZM168.722 259.844C169.593 260.246 170.439 260.776 171.162 261.407C173.169 263.159 175.458 263.954 178.111 263.777C178.482 263.752 186.373 263.354 185.783 264.368C185.38 265.06 179.422 266.207 178.74 266.216C175.994 266.253 172.7 264.941 171.322 264.368C170.765 264.137 166.661 261.666 167.432 260.217C167.73 259.656 168.415 259.702 168.722 259.844ZM136.997 245.785C136.578 246.43 135.979 247.025 135.786 247.732C135.55 248.599 134.709 249.278 134.994 250.302C135.582 252.412 136.035 254.57 136.774 256.625C137.239 257.919 138.12 259.065 138.834 260.266C138.85 260.292 139.174 260.219 139.246 260.116C140.216 258.727 141.519 257.762 143.171 256.95C143.588 256.661 143.981 256.326 144.428 256.095C144.952 255.825 144.888 255.762 144.419 255.445C141.446 253.432 139.384 250.629 137.728 247.499C137.439 246.952 137.239 246.358 136.997 245.785ZM0.0634401 221.709C0.150994 221.841 0.229898 221.98 0.327372 222.104C2.74831 225.189 5.17197 228.271 7.59254 231.355C7.83524 231.665 8.06124 231.987 8.35692 232.365C10.7831 234.874 13.0379 237.44 15.5396 239.737C18.5728 242.522 21.8023 245.095 24.9701 247.731C27.2508 249.629 29.5282 251.583 32.3576 252.608C34.1596 253.261 36.0477 253.89 37.937 254.045C42.1468 254.391 46.3857 254.366 50.6034 254.637C51.8829 254.719 53.1374 255.257 54.3891 255.634C54.5745 255.69 55.1045 255.986 54.2919 256.106C51.9353 256.454 49.6055 256.997 47.2435 257.289C45.8066 257.467 44.3295 257.34 42.871 257.318C39.1166 257.263 35.5712 256.302 32.1116 254.896C27.7042 253.104 23.7574 250.59 20.223 247.434C17.7951 245.265 15.262 243.172 13.105 240.752C9.25345 236.431 5.58334 231.942 1.98262 227.408C0.823276 225.948 0.0804301 224.139 0.000575667 222.177C-0.00572103 222.022 0.041235 221.865 0.0634401 221.709ZM140.623 239.457C139.527 240.838 138.123 242.138 138.493 244.122C138.759 245.546 139.263 246.93 139.709 248.316C140.675 251.319 143.153 253.01 145.469 254.826C145.593 254.923 146.019 254.824 146.162 254.677C148.102 252.693 150.015 250.684 151.936 248.681C152.304 248.298 152.823 247.965 151.719 247.876C150.977 247.816 150.263 247.431 149.53 247.212C148.611 246.938 147.686 246.685 146.515 246.423C145.65 245.64 144.859 244.748 143.903 244.1C142.277 242.997 141.27 241.564 140.93 239.639C140.915 239.559 140.634 239.442 140.623 239.457ZM200.537 231.073L199.69 231.355C197.526 232.079 195.38 232.849 193.644 234.462C191.651 236.313 190.63 238.692 190.005 241.249C189.878 241.766 189.79 242.279 189.743 242.787C189.787 242.597 189.845 242.413 189.906 242.245C190.073 241.788 190.492 241.413 190.835 241.033L190.973 240.882C191.647 240.16 192.371 239.609 193.458 240.317C194.655 241.096 194.126 242.067 193.792 243.016C193.679 243.336 193.508 243.636 193.302 244.008C192.745 244.93 191.982 245.431 191.031 245.141C190.515 244.984 189.94 244.462 189.745 243.966C189.73 243.927 189.717 243.886 189.706 243.845C189.746 245.586 190.308 247.236 191.504 248.695C192.549 249.972 193.824 251.086 195.109 252.135C198.221 254.673 201.714 255.119 205.252 253.277C209.76 250.93 212.003 246.677 214.015 242.088C214.141 241.058 214.427 240.018 214.36 239.001C214.228 237.005 212.942 235.593 211.495 234.388C208.323 231.745 204.957 229.589 200.537 231.073ZM145.271 230.327C144.984 230.661 144.677 230.981 144.418 231.336C144.288 231.514 144.229 231.751 144.165 231.969C143.582 233.953 142.882 235.914 142.473 237.933C142.216 239.2 142.548 240.516 143.419 241.84C144.405 242.542 145.39 243.247 146.379 243.945C148.373 245.354 150.727 245.806 153.023 246.392C153.21 246.44 153.66 246.101 153.73 245.865C154.372 243.723 154.958 241.564 155.542 239.404C155.553 239.362 155.352 239.208 155.238 239.193C153.216 238.925 151.216 238.809 149.504 237.34C147.633 235.733 146.483 233.756 145.651 231.519C145.506 231.129 145.397 230.725 145.271 230.327ZM168.632 221.64C166.236 222.04 164.66 223.793 163.283 225.688C161.598 228.008 160.647 230.632 160.555 233.458C160.478 235.802 161.146 238.057 162.233 240.174L162.406 240.51C163.066 241.796 163.737 243.023 165.164 243.712C168.697 245.417 172.402 245.986 176.254 245.4C177.406 245.224 178.755 244.954 179.575 244.23C182.72 241.456 184.46 237.883 184.91 233.542C184.868 232.603 184.883 231.657 184.775 230.725C184.456 227.943 182.994 225.827 180.837 224.127C178.939 222.632 176.72 221.775 174.401 221.468C172.514 221.218 170.519 221.326 168.632 221.64ZM174.634 203.943C173.35 207.814 172.073 211.687 170.817 215.567C171.096 215.51 171.393 215.4 171.625 215.478C173.021 215.952 174.364 216.519 175.456 217.588C176.07 218.189 176.821 218.651 177.573 219.237C177.732 219.372 177.889 219.5 178.043 219.624C178.135 219.648 178.227 219.674 178.32 219.7C181.131 220.496 183.557 221.982 185.283 224.44C187.591 227.727 188.152 231.563 188.749 235.389C188.779 235.584 188.802 235.779 188.829 235.975C189.028 235.888 189.26 235.839 189.42 235.705C189.735 235.441 190.014 235.132 190.302 234.837C192.554 232.527 195.08 230.548 197.99 229.176C201.082 227.718 204.265 227.357 207.613 228.689C210.126 229.689 212.144 231.295 214.107 233.031C214.963 233.789 218.988 235.707 226.181 238.787C225.005 233.82 223.793 230.25 222.546 228.079C220.974 225.345 219.202 223.256 216.993 221.213C213.134 217.644 209.097 214.365 204.617 211.594C199.903 208.679 194.809 206.745 189.504 205.323C185.775 204.323 181.997 203.511 178.245 202.597C176.607 202.198 175.03 202.748 174.634 203.943ZM150.149 225.632C148.178 226.967 146.607 229.245 147.501 232.051C148.493 235.16 152 237.847 155.328 237.967C155.643 237.978 156.127 237.582 156.271 237.258C156.671 236.354 156.956 235.395 157.234 234.442C157.287 234.26 157.105 233.819 157.024 233.817C154.913 233.771 153.564 232.42 152.089 230.941C151.136 229.382 150.485 227.737 150.582 225.862C150.586 225.788 150.217 225.586 150.149 225.632ZM46.7991 228.968C47.8936 229.513 48.9838 230.075 50.0311 230.704C52.2104 232.014 54.3165 233.452 56.5425 234.674C57.7293 235.325 59.1082 235.622 60.3893 236.109C60.6718 236.216 60.9071 236.448 61.1641 236.622C60.8992 236.751 60.5881 236.829 60.3768 237.018C58.8372 238.397 57.3891 237.122 55.9515 236.825C52.9819 236.21 50.9068 234.174 48.8569 231.994C47.9559 231.175 47.1032 230.433 46.2876 229.652C46.0919 229.465 46.0197 229.148 45.8907 228.891C46.1961 228.912 46.5462 228.843 46.7991 228.968ZM164.587 231.239C165.631 231.681 165.539 232.519 165.483 233.331C165.39 234.677 163.557 236.436 162.385 236.219C161.966 236.142 161.337 235.506 161.347 235.14C161.372 234.19 161.699 233.249 161.967 232.242C162.146 232.063 162.264 231.948 162.379 231.83C162.996 231.192 163.63 230.833 164.587 231.239ZM153.699 221.9C153.327 222.445 152.817 222.943 152.608 223.545C151.584 226.496 153.455 231.098 157.354 232.218C157.54 232.272 157.955 232.103 158.011 231.948C158.625 230.225 159.193 228.486 159.76 226.746C159.796 226.636 159.721 226.375 159.694 226.375C156.793 226.335 155.383 224.549 154.54 222.05C154.488 221.895 154.07 221.864 153.699 221.9ZM204.654 227.254C204.901 227.385 205.105 227.596 205.329 227.77C205.086 227.712 204.846 227.64 204.6 227.599C202.062 227.183 199.521 226.781 196.986 226.347C196.632 226.286 196.305 226.072 195.965 225.928C196.337 225.824 196.708 225.72 197.204 225.615C199.903 225.564 202.364 226.038 204.654 227.254ZM159.877 214.236C159.592 214.654 159.304 215.069 159.03 215.493C158.992 215.551 159.054 215.67 159.02 215.735C158.233 217.222 157.476 218.728 156.632 220.182C156.16 220.996 156.133 222.591 156.838 223.021C157.843 223.636 158.937 224.107 160.003 224.621C160.71 224.962 161.137 224.53 161.494 224.008C162.174 223.014 162.796 221.98 163.519 221.02C164.084 220.269 163.526 220.425 162.988 220.29C160.419 219.648 160.124 217.499 159.781 215.403C159.72 215.029 159.84 214.626 159.877 214.236ZM164.079 208.299C163.716 208.594 163.216 208.815 163.01 209.196C161.871 211.305 161.446 213.613 161.526 215.979C161.588 217.831 162.726 219.094 164.518 219.569C164.766 219.635 165.119 219.535 165.349 219.393C165.946 219.025 166.502 218.591 167.199 218.06C167.446 217.628 167.762 217.219 167.926 216.757C168.155 216.107 168.304 215.422 168.42 214.741C168.46 214.503 168.384 214.115 168.216 213.991C166.556 212.76 165.322 211.2 164.477 209.324C164.326 208.99 164.211 208.641 164.079 208.299ZM170.784 215.671L170.275 217.244C170.218 217.419 170.461 217.87 170.631 217.911C172.143 218.274 173.67 218.583 175.187 218.922C174.353 218.306 173.519 217.689 172.681 217.077C172.245 216.758 171.759 216.507 171.32 216.192C171.119 216.049 170.957 215.853 170.784 215.671ZM171.586 197.589C170.722 198.319 169.897 199.096 168.933 199.978C167.307 201.228 166.64 203.019 166.234 204.919C165.694 207.448 165.961 209.795 167.993 211.682C168.681 212.322 169.133 212.05 169.418 211.351C170.294 209.198 171.128 207.028 171.973 204.863C172.861 202.59 173.36 200.326 172.448 197.886C172.168 197.138 171.963 197.27 171.586 197.589ZM202.522 199.897C201.443 200.14 200.216 201.794 199.779 203.077C199.587 203.641 199.305 204.076 200.4 204.376C202.798 205.033 205.088 206.08 207.203 207.774C207.679 207.793 208.171 207.9 208.629 207.817C210.348 207.506 212.048 205.662 213.769 205.61C216.087 205.539 218.435 205.755 220.736 206.082C223.112 206.419 225.508 206.848 227.785 207.58C230.792 208.545 233.692 209.846 236.639 210.998C236.835 211.075 237.045 211.118 237.248 211.176C237.195 211.006 237.114 210.839 237.093 210.665C236.954 209.519 236.187 208.802 235.286 208.293C232.717 206.842 230.154 205.367 227.498 204.088C223.054 201.948 218.464 200.281 213.519 199.552C209.792 199.003 206.149 199.082 202.522 199.897ZM199.898 193.416C196.241 193.569 193.171 194.953 190.875 197.862C189.763 199.27 190.013 201.326 191.704 201.82C193.806 202.435 195.926 202.985 198.286 203.563C198.782 202.82 199.127 200.64 199.803 200.141C201.69 198.746 203.933 198.178 206.256 198.144C208.282 198.113 210.329 198.149 212.336 198.403C214.726 198.704 217.13 199.102 219.445 199.754C224.541 201.19 229.281 203.508 233.914 206.044C234.195 206.198 234.494 206.319 234.785 206.455C234.781 206.014 234.831 205.562 234.75 205.134C234.711 204.933 234.447 204.742 234.244 204.611C232.424 203.434 230.675 202.111 228.75 201.139C224.731 199.108 220.631 197.259 216.27 196.01C210.909 194.475 205.529 193.181 199.898 193.416ZM192.304 184.962C188.24 185.408 184.695 186.768 181.962 189.918C180.378 191.743 179.432 193.825 179.336 196.51C179.336 196.882 179.261 198.506 179.355 198.853C179.473 199.287 179.661 199.98 179.939 200.044C181.164 200.328 182.43 200.452 183.687 200.561C183.871 200.577 184.235 200.223 184.265 200.006C184.401 199.014 184.299 196.739 184.553 195.786C185.533 192.096 188.18 189.977 191.608 188.718C194.487 187.659 197.483 187.639 200.525 187.672C205.04 187.721 209.451 188.373 213.792 189.488C215.55 189.939 217.207 190.796 218.895 191.504C219.114 191.595 219.244 191.897 219.415 192.101C219.162 192.063 218.896 192.063 218.659 191.981C212.917 189.998 206.978 189.069 200.941 188.722C197.981 188.551 195.012 188.857 192.203 189.746C189.098 190.728 186.489 192.488 185.431 195.86C184.859 197.68 185.681 200.521 187.457 201.177C188.493 201.56 188.865 201.079 189.268 200.235C189.782 199.162 190.324 196.809 191.107 195.937C193.576 193.187 196.914 192.276 200.431 192.228C202.761 192.196 205.125 192.521 207.423 192.953C210.881 193.602 214.353 194.293 217.713 195.313C222.741 196.839 227.545 198.949 231.98 201.825C232.298 202.031 232.713 202.088 233.082 202.214C232.97 201.849 232.901 201.464 232.738 201.123C230.721 196.89 228.259 192.964 224.682 189.85C222.586 188.025 220.196 186.666 217.489 186.005C215.526 185.525 213.546 185.406 211.477 185.665C209.529 185.908 207.508 185.583 205.52 185.481C204.562 185.432 203.599 185.373 202.652 185.23C199.211 184.713 195.782 184.58 192.304 184.962ZM178.212 192.67C178.072 192.731 177.914 192.767 177.796 192.855C177.072 193.4 176.424 194.095 175.625 194.477C174.331 195.097 174.564 196.081 174.739 197.111C174.764 197.259 174.863 197.399 174.872 197.546C174.922 198.312 174.954 199.078 174.992 199.844C175.165 200.918 176.485 200.918 177.355 200.714C177.52 200.083 177.753 199.461 177.836 198.819C178.03 197.324 178.155 194.587 178.297 193.085C178.309 192.95 178.242 192.809 178.212 192.67ZM130.534 123.524C130.763 123.802 130.589 124.438 130.539 124.91C130.508 125.21 130.285 125.506 130.304 125.794C130.53 129.119 130.872 132.438 131.008 135.766C131.13 138.733 131.029 141.709 131.04 144.681C131.041 145.072 131.085 145.79 131.178 145.802C131.908 145.892 132.656 145.858 133.395 145.819C133.443 145.817 133.521 145.458 133.502 145.273C133.444 144.727 133.321 144.187 133.267 143.641C132.929 140.228 132.493 136.821 132.305 133.4C132.145 130.478 132.217 127.538 132.331 124.611C132.348 124.163 133.12 123.435 133.596 123.389C134.228 123.328 134.592 123.956 134.522 124.746C134.436 125.729 134.428 126.732 134.515 127.715C134.81 131.048 135.157 144.872 135.272 145.693C135.284 145.775 135.684 145.847 135.903 145.847C141.971 145.856 148.04 145.903 154.107 145.831C156.805 145.799 159.501 145.512 162.199 145.362C164.062 145.259 165.938 145.286 167.791 145.093C172.961 144.554 178.138 144.353 183.335 144.327C185.958 144.313 188.576 143.836 191.202 143.633C194.853 143.351 198.505 143.045 202.163 142.903C206.625 142.73 211.092 142.701 215.558 142.65C216.239 142.642 216.552 142.602 216.516 141.761C216.375 138.454 216.337 135.143 216.241 131.834C216.176 129.556 216.09 127.279 215.991 125.002C215.962 124.346 216.154 124.037 216.878 124.037C217.629 124.037 217.728 124.403 217.743 125.03C217.795 127.226 217.649 129.465 218.037 131.605C218.616 134.805 218.376 137.997 218.475 141.193C218.513 142.415 219.087 142.867 220.245 142.638C220.784 142.531 221.331 142.397 221.875 142.397C233.186 142.383 244.496 142.366 255.806 142.397C259.57 142.408 269.494 142.539 273.257 142.642C274.256 142.669 275.254 142.779 276.25 142.887C277.302 143.001 278.126 144.087 278.135 145.382C278.15 147.611 278.139 149.84 278.139 152.069C278.139 152.275 278.128 152.482 278.141 152.688C278.179 153.298 278.468 154.284 278.221 154.444C277.611 154.837 276.761 154.967 275.999 155C271.363 155.203 260.565 155.398 255.927 155.502C249.977 155.635 244.025 155.688 238.073 155.76C230.512 155.851 222.951 155.913 215.39 156.017C212.328 156.058 209.267 156.169 206.205 156.26C203.763 156.332 201.321 156.434 198.878 156.503C195.569 156.596 192.259 156.679 188.95 156.751C184.774 156.842 180.597 156.914 176.421 157.002C172.74 157.079 169.059 157.166 165.378 157.248C161.698 157.331 158.016 157.378 154.336 157.507C151.018 157.622 147.702 157.806 144.387 157.999C142.224 158.125 140.06 158.273 137.906 158.5C135.272 158.777 132.65 159.175 130.017 159.469C128.109 159.681 126.195 159.866 124.279 159.961C120.18 160.165 116.075 160.251 111.978 160.488C109.557 160.628 94.8285 161.003 92.4084 161.189C91.6281 161.249 90.812 161.112 90.0436 160.932C89.7314 160.859 89.315 160.46 89.2675 160.158C89.0327 158.669 88.8848 157.165 88.7468 155.662C88.6327 154.419 88.4898 153.17 88.5206 151.927C88.5438 150.987 88.8019 150.087 88.5907 149.096C88.5286 148.805 89.5992 147.984 90.225 147.887C92.1989 147.582 106.534 147.551 108.523 147.329C111.034 147.048 113.536 146.681 116.042 146.359C116.285 146.328 116.536 146.359 116.782 146.348C120.594 146.185 124.405 145.996 128.218 145.876C128.874 145.855 128.812 145.557 128.809 145.129C128.797 143.478 128.772 141.826 128.813 140.176C128.854 138.559 128.969 136.943 129.052 135.203C128.731 132.776 128.349 130.48 128.113 128.169C127.975 126.824 127.993 125.448 128.111 124.101C128.144 123.728 128.74 123.22 129.16 123.118C129.581 123.016 130.272 123.206 130.534 123.524ZM256.257 144.134C244.403 144.18 232.55 144.272 220.697 144.373C214.663 144.425 208.628 144.468 202.598 144.643C199.683 144.728 196.777 145.131 193.865 145.353C190.337 145.623 186.806 145.856 183.276 146.101C181.99 146.19 180.703 146.265 179.417 146.35C175.68 146.596 171.947 146.91 168.208 147.074C164.448 147.24 160.682 147.258 156.671 147.34C155.715 147.423 154.759 147.566 153.802 147.578C145.953 147.678 138.103 147.715 130.254 147.853C126.936 147.912 123.621 148.163 120.305 148.332C118.853 148.407 117.399 148.465 115.951 148.585C112.165 148.897 96.0614 149.249 92.2757 149.563C91.3823 149.637 90.8694 149.859 90.9434 150.959C91.11 153.437 91.1735 155.924 91.1936 158.408C91.1995 159.137 91.4018 159.298 92.0786 159.241C94.3605 159.047 108.967 158.897 111.251 158.735C113.618 158.567 115.984 158.382 118.352 158.245C121.585 158.058 124.82 157.916 128.053 157.736C128.517 157.71 128.973 157.559 129.437 157.5C131.438 157.244 133.438 156.971 135.445 156.761C137.395 156.557 139.35 156.389 141.306 156.264C145.536 155.994 149.766 155.708 154.001 155.531C157.802 155.371 161.609 155.351 165.413 155.266C168.97 155.186 172.527 155.096 176.084 155.021C180.301 154.931 184.518 154.843 188.735 154.774C194.397 154.681 200.059 154.619 205.721 154.518C208.535 154.468 211.349 154.363 214.162 154.274C216.564 154.199 218.964 154.081 221.366 154.034C226.697 153.932 232.029 153.857 237.36 153.782C243.683 153.693 250.006 153.655 256.327 153.519C260.759 153.424 271.349 153.21 275.779 153.015C275.995 153.005 276.374 152.667 276.378 152.475C276.421 150.371 276.404 148.266 276.406 146.161C276.408 145.269 275.891 144.765 275.087 144.632C274.143 144.477 273.178 144.406 272.22 144.376C268.953 144.272 259.524 144.122 256.257 144.134ZM221.958 122.21C222.257 126.523 222.569 130.836 222.952 135.143C223.076 136.535 223.391 137.914 223.683 139.284C223.936 140.47 223.237 141.301 221.756 141.333C221.446 140.427 221.09 139.597 220.974 138.734C220.733 136.959 220.539 135.17 220.473 133.381C220.334 129.67 220.289 125.954 220.209 122.24C220.197 121.674 220.086 121.095 220.997 121.063C221.911 121.031 221.91 121.523 221.958 122.21Z" fill="#00160A"/>
<path fill-rule="evenodd" clip-rule="evenodd" d="M177.882 367.747C172.986 380.015 153.074 365.067 150.578 356.269C149.643 352.97 156.054 346.212 159.262 348.885C164.972 353.644 164.562 361.19 173.341 363.081C174.649 363.362 177.459 363.321 178.729 363.686C179.383 363.873 179.101 365.227 177.882 367.747Z" fill="#FBBC05"/>
<path fill-rule="evenodd" clip-rule="evenodd" d="M257.892 308.102C258.464 310.865 258.963 313.506 258.904 316.235C258.869 317.849 259.029 319.469 259.134 321.084C259.43 325.679 257.311 328.905 253.593 331.4C251.043 333.111 248.739 335.186 246.219 336.947C244.101 338.427 241.88 339.776 239.618 341.028C235.047 343.558 230.364 345.928 228.286 351.211C227.323 353.66 226.044 356.051 225.533 358.594C224.942 361.531 225.482 364.453 228.184 366.459C228.278 366.529 228.322 366.665 228.417 366.729C228.837 367.012 229.289 367.513 229.686 367.476C229.992 367.447 230.278 366.757 230.497 366.323C230.986 365.354 230.538 364.498 230.318 363.523C229.986 362.047 230.246 360.434 230.291 358.881C230.295 358.712 230.536 358.551 230.667 358.386C230.742 358.583 230.865 358.775 230.883 358.977C230.983 360.056 230.956 361.158 231.173 362.21C231.331 362.976 231.721 363.728 232.152 364.393C232.598 365.082 234.101 364.753 234.347 363.92C234.802 362.377 234.722 360.828 234.39 359.251C234.222 358.452 234.358 357.584 234.407 356.751C234.414 356.627 234.703 356.52 234.862 356.404C234.942 356.555 235.072 356.714 235.09 356.854C235.826 362.552 236.903 362.552 237.345 362.72C237.787 362.888 238.353 362.662 238.559 362.552C238.818 362.414 239.013 361.96 239.047 361.623C239.177 360.341 239.021 358.992 239.366 357.78C239.811 356.218 240.488 354.672 241.347 353.294C241.917 352.38 242.959 351.749 243.826 351.034C246.079 349.176 248.42 347.447 251.26 346.569C253.274 345.946 255.305 345.376 257.321 344.759C260.8 343.696 264.343 342.796 267.735 341.501C273.024 339.481 276.965 335.977 278.166 330.185C278.825 327.009 278.318 323.808 277.119 320.817C276.169 318.448 274.879 316.216 273.75 313.917C273.635 313.684 273.591 313.415 273.514 313.163C273.718 313.296 273.958 313.395 274.122 313.567C277.001 316.587 278.906 320.166 279.786 324.212C280.73 328.548 281.034 332.935 278.902 337.055C278.434 337.958 277.481 338.686 276.61 339.291C273.983 341.115 271.047 342.345 268.041 343.397C264.543 344.622 261.101 346.164 257.498 346.886C254.023 347.584 251.009 349.191 247.81 350.453C245.845 351.228 244.776 353.031 243.236 354.283C241.611 355.605 241.143 357.223 241.289 359.175C241.331 359.75 241.272 360.331 241.299 360.908C241.471 364.617 239.628 364.952 236.836 363.851C236.715 363.803 236.371 363.962 236.361 364.05C236.13 366.142 234.936 367.166 233.028 366.483C232.207 366.19 232.248 366.742 232.167 366.935C231.328 368.945 229.272 369.595 227.863 368.04C226.4 366.427 225.042 364.641 224.042 362.72C223.546 361.768 223.775 360.309 223.996 359.14C224.374 357.142 224.886 355.15 225.558 353.232C226.448 350.692 227.907 348.471 229.603 346.35C231.333 344.184 233.491 342.633 235.826 341.324C239.033 339.526 242.191 337.662 245.177 335.524C246.401 334.649 247.439 333.518 248.643 332.61C250.231 331.412 251.901 330.322 253.532 329.181C255.757 327.623 257.279 325.76 257.205 322.775C257.155 320.78 257.804 318.775 257.846 316.768C257.888 314.778 257.537 312.781 257.407 310.783C257.345 309.824 257.389 308.857 257.403 307.894C257.405 307.722 257.494 307.552 257.543 307.382C257.659 307.58 257.775 307.779 257.892 308.102Z" fill="#00160A"/>
<path fill-rule="evenodd" clip-rule="evenodd" d="M13.9006 173.845C14.0173 173.59 14.2354 173.343 14.2364 173.344C16.7831 175.578 18.3923 178.359 19.4076 181.597C19.8447 182.991 20.8086 184.264 21.712 185.457C23.4162 187.707 25.2551 189.855 27.0107 192.067C27.0802 192.155 26.9297 192.564 26.7798 192.654C25.7729 193.259 23.9737 192.937 22.8901 191.843C21.9654 190.91 21.1526 189.859 20.3421 188.82C19.1258 187.261 17.4226 186.645 15.5922 186.228C12.6814 185.564 10.5138 183.775 8.70715 181.518C5.65935 177.71 4.38417 173.203 3.75722 168.471C3.60553 167.327 3.3669 166.11 3.5942 165.015C4.06384 162.753 6.08574 161.516 8.61629 162.258C13.1576 163.591 17.6758 165.075 22.0553 166.86C24.9021 168.02 26.0377 170.705 26.5687 173.69C27.0172 176.211 26.459 178.484 25.4633 180.723C25.1186 181.499 25.0578 181.47 24.5496 180.743C23.5574 179.325 23.3059 177.653 23.6128 176.086C24.2869 172.645 22.7335 169.929 19.9945 168.9C16.8154 167.705 13.6453 166.466 10.4062 165.455C7.20027 164.454 7.24463 164.67 7.83687 167.778C8.63991 171.993 10.1807 176.1 11.7398 180.124C12.5711 182.27 14.2897 183.881 16.724 184.533C17.5896 184.765 17.4707 184.28 17.3473 183.93C16.7639 182.277 16.1432 180.634 15.4658 179.016C14.7806 177.38 13.8141 175.841 13.9006 173.845Z" fill="#FFB61D"/>
<path fill-rule="evenodd" clip-rule="evenodd" d="M265.261 304.2C262.089 303.221 259.109 303.661 256.137 304.835C255.439 305.111 254.462 304.952 253.711 304.701C253.365 304.584 254.451 302.727 255.322 302.396C256.356 302.003 257.419 301.571 258.503 301.444C261.806 301.059 264.868 301.94 267.776 303.483C269.055 304.161 270.404 304.706 271.676 305.397C272.22 305.692 272.671 306.181 273.113 306.633C273.236 306.758 273.262 307.208 273.18 307.259C272.976 307.384 272.641 307.467 272.432 307.385C271.124 306.866 269.83 306.309 268.541 305.741C267.461 305.265 266.395 304.756 265.261 304.2Z" fill="#00160A"/>
<path fill-rule="evenodd" clip-rule="evenodd" d="M167.417 128.205C165.268 129.693 163.234 131.204 161.081 132.522C158.732 133.961 156.288 135.25 153.844 136.525C153.494 136.708 152.642 136.599 152.494 136.349C152.238 135.911 152.144 135.309 152.967 134.92C154.42 134.232 155.803 133.379 157.155 132.502C159.242 131.15 161.27 129.71 163.338 128.328C164.462 127.576 165.566 126.763 166.78 126.192C167.275 125.959 168.419 126.077 168.605 126.408C169.161 127.397 168.295 127.833 167.417 128.205Z" fill="#E7EAEE"/>
<path fill-rule="evenodd" clip-rule="evenodd" d="M182.775 283.517C183.497 282.876 184.149 282.287 184.823 281.725C185.02 281.561 185.28 281.473 185.511 281.349C185.611 281.563 185.768 281.769 185.8 281.992C186.012 283.47 186.039 285.038 187.411 286.02C187.993 286.437 188.675 286.871 189.357 286.964C191.893 287.307 194.892 287.047 196.624 284.329C197.326 283.228 197.11 282.108 197.222 280.975C197.251 280.676 197.454 280.195 197.66 280.146C198.494 279.948 198.2 280.658 198.177 281.001C198.083 282.366 198.431 283.714 197.506 285.065C196.388 286.697 194.915 287.739 193.132 287.96C191.385 288.177 189.542 288.304 187.764 287.572C186.172 286.917 185.408 285.764 185.063 284.192C185.017 283.983 184.931 283.783 184.863 283.579C184.701 283.685 184.54 283.792 184.376 283.897C182.651 284.998 181.011 286.323 178.813 286.275C178.499 286.268 178.192 285.871 177.882 285.655C178.164 285.541 178.448 285.432 178.727 285.312C180.056 284.736 181.384 284.157 182.775 283.517Z" fill="#00160A"/>
<path fill-rule="evenodd" clip-rule="evenodd" d="M235.288 128.948C236.733 127.668 238.086 126.413 239.519 125.257C239.903 124.948 240.528 124.865 241.051 124.834C241.286 124.821 241.745 125.188 241.747 125.388C241.753 125.768 241.609 126.273 241.338 126.508C240.697 127.064 239.892 127.431 239.247 127.983C237.139 129.787 235.098 131.671 232.962 133.44C232.669 133.682 231.848 133.634 231.51 133.39C231.056 133.061 231.231 132.458 231.676 132.069C232.854 131.043 234.042 130.029 235.288 128.948Z" fill="#E7EAEE"/>
<path fill-rule="evenodd" clip-rule="evenodd" d="M195.222 349.221C194.012 349.386 192.932 349.626 191.84 349.697C190.554 349.78 189.252 349.79 187.971 349.674C187.557 349.636 187.189 349.099 186.8 348.79C187.18 348.603 187.544 348.315 187.944 348.247C190.07 347.886 192.197 347.477 194.341 347.288C196.152 347.128 197.988 347.226 199.812 347.266C200.02 347.27 200.374 347.632 200.381 347.837C200.388 348.044 200.076 348.411 199.855 348.454C198.359 348.747 196.85 348.973 195.222 349.221Z" fill="#00160A"/>
<path fill-rule="evenodd" clip-rule="evenodd" d="M106.357 128.081C106.858 127.689 107.255 127.235 107.75 127.065C108.185 126.916 109.084 126.947 109.157 127.137C109.349 127.638 109.44 128.199 108.744 128.73C106.622 130.347 104.626 132.128 102.575 133.838C102.369 134.01 102.13 134.237 101.893 134.255C101.477 134.285 100.828 134.313 100.683 134.085C100.484 133.771 100.477 133.006 100.71 132.8C102.528 131.198 104.424 129.684 106.357 128.081Z" fill="#E7EAEE"/>
<path fill-rule="evenodd" clip-rule="evenodd" d="M240.8 133.716C242.471 132.252 244.171 130.944 245.798 129.552C246.39 129.046 246.996 128.661 247.558 129.266C248.056 129.803 247.753 130.454 247.185 130.929C245.559 132.29 243.975 133.704 242.303 135.004C241.98 135.255 241.328 135.084 240.829 135.107C240.819 134.685 240.809 134.263 240.8 133.716Z" fill="#E7EAEE"/>
<path fill-rule="evenodd" clip-rule="evenodd" d="M184.632 288.719C185.066 289.277 185.75 289.78 185.739 290.267C185.72 291.084 185.48 291.936 184.536 292.455C183.145 293.22 181.964 292.918 180.823 292.076C179.828 291.342 179.88 290.023 180.882 288.63C181.299 288.05 182.917 287.818 183.643 288.219C183.941 288.385 184.261 288.512 184.632 288.719ZM184.323 289.4C183.983 289.225 183.658 289.005 183.3 288.885C182.469 288.606 181.81 288.806 181.36 289.626C180.921 290.429 181.31 291.005 181.904 291.394C182.298 291.651 182.893 291.794 183.348 291.712C183.846 291.624 184.463 291.32 184.697 290.917C184.878 290.607 184.549 289.999 184.323 289.4Z" fill="#00160A"/>
<path fill-rule="evenodd" clip-rule="evenodd" d="M169.894 134.398C170.946 133.758 171.908 133.12 172.945 132.645C173.218 132.52 174.064 132.909 174.061 133.05C174.049 133.605 173.978 134.384 173.611 134.662C172.675 135.375 171.605 135.953 170.511 136.394C170.107 136.557 169.186 136.338 169.027 136.026C168.695 135.373 169.028 134.713 169.894 134.398Z" fill="#E7EAEE"/>
<path d="M199.403 8.51062C194.181 12.0231 188.08 12.717 166.043 6.26124C151.87 2.10854 142.017 12.8363 142 26.9815C141.991 34.003 143.253 40.7978 146.247 46.667C149.823 53.6712 164.685 68.0118 166.907 55.7475C176.068 5.22306 177.97 42.0782 187.649 41.3861C194.204 40.9172 195.6 -2.9093 210.984 57.8239C215.168 74.3464 237.067 45.2135 237.067 26.9815C237.067 20.2385 235.922 13.7049 233.139 8.01229C226.194 -6.19685 209.947 1.41643 199.403 8.51062Z" fill="url(#paint0_radial_555_1641)"/>
<mask id="mask0_555_1641" style="mask-type:alpha" maskUnits="userSpaceOnUse" x="142" y="0" width="96" height="63">
<path d="M199.403 8.51062C194.181 12.0231 188.08 12.717 166.043 6.26124C151.87 2.10854 142.017 12.8363 142 26.9815C141.991 34.003 143.253 40.7978 146.247 46.667C149.823 53.6712 164.685 68.0118 166.907 55.7475C176.068 5.22306 177.97 42.0782 187.649 41.3861C194.204 40.9172 195.6 -2.9093 210.984 57.8239C215.168 74.3464 237.067 45.2135 237.067 26.9815C237.067 20.2385 235.922 13.7049 233.139 8.01229C226.194 -6.19685 209.947 1.41643 199.403 8.51062Z" fill="white"/>
</mask>
<g mask="url(#mask0_555_1641)">
<path d="M152.415 59.7271C152.415 59.7271 161.231 29.6201 184.565 53.6711C204.778 74.5038 231.753 46.2309 231.753 46.2309L230.024 72.3582L188.022 81.1827H144.119L152.415 59.7271Z" fill="url(#paint1_linear_555_1641)"/>
<path d="M172.466 -5.3318C172.466 -5.3318 152.07 -5.3318 156.046 22.6989C157.888 35.6882 155.477 50.5272 134.495 55.5208C113.513 60.5144 127.407 -9.12114 127.407 -9.12114L181.282 -39.5916L172.466 -5.3318Z" fill="url(#paint2_radial_555_1641)"/>
<path d="M189.566 -9.54837C189.566 -9.54837 187.487 23.2649 207.824 22.5779C228.162 21.8927 237.07 30.3989 237.129 45.1219C237.188 59.8449 264.358 14.8401 264.358 14.8401L228.571 -26.2007L189.566 -9.54837Z" fill="url(#paint3_radial_555_1641)"/>
</g>
<circle cx="181.215" cy="58.0377" r="3.66003" fill="#E05500"/>
<circle cx="195.855" cy="58.0377" r="3.66003" fill="#E05500"/>
<defs>
<radialGradient id="paint0_radial_555_1641" cx="0" cy="0" r="1" gradientUnits="userSpaceOnUse" gradientTransform="translate(189.534 31.3586) rotate(-0.0175754) scale(84.8798 84.9685)">
<stop stop-color="#FF9900"/>
<stop offset="1" stop-color="#C41700"/>
</radialGradient>
<linearGradient id="paint1_linear_555_1641" x1="136.482" y1="58.9187" x2="255.318" y2="67.3728" gradientUnits="userSpaceOnUse">
<stop stop-color="#FF9900"/>
<stop offset="1" stop-color="#C41700"/>
</linearGradient>
<radialGradient id="paint2_radial_555_1641" cx="0" cy="0" r="1" gradientUnits="userSpaceOnUse" gradientTransform="translate(152.09 8.0927) rotate(-0.0435159) scale(52.1292 129.204)">
<stop stop-color="#FF9900"/>
<stop offset="1" stop-color="#C41700"/>
</radialGradient>
<radialGradient id="paint3_radial_555_1641" cx="0" cy="0" r="1" gradientUnits="userSpaceOnUse" gradientTransform="translate(226.933 10.9401) rotate(-0.026438) scale(66.8307 100.636)">
<stop stop-color="#FF9900"/>
<stop offset="1" stop-color="#C41700"/>
</radialGradient>
</defs>
</svg>
