<svg width="96" height="63" viewBox="0 0 96 63" fill="none" xmlns="http://www.w3.org/2000/svg">
<path d="M57.403 8.51062C52.1812 12.0231 46.0797 12.717 24.0432 6.26124C9.86968 2.10854 0.0173289 12.8363 4.40758e-05 26.9815C-0.00859834 34.003 1.2532 40.7978 4.24693 46.667C7.82316 53.6712 22.6847 68.0118 24.9075 55.7475C34.0684 5.22306 35.9698 42.0782 45.6493 41.3861C52.2037 40.9172 53.6003 -2.9093 68.9838 57.8239C73.1685 74.3464 95.0666 45.2135 95.0666 26.9815C95.0666 20.2385 93.9223 13.7049 91.1395 8.01229C84.1944 -6.19685 67.9467 1.41643 57.403 8.51062Z" fill="url(#paint0_radial_555_1654)"/>
<mask id="mask0_555_1654" style="mask-type:alpha" maskUnits="userSpaceOnUse" x="0" y="0" width="96" height="63">
<path d="M57.403 8.51062C52.1812 12.0231 46.0797 12.717 24.0432 6.26124C9.86968 2.10854 0.0173289 12.8363 4.40758e-05 26.9815C-0.00859834 34.003 1.2532 40.7978 4.24693 46.667C7.82316 53.6712 22.6847 68.0118 24.9075 55.7475C34.0684 5.22306 35.9698 42.0782 45.6493 41.3861C52.2037 40.9172 53.6003 -2.9093 68.9838 57.8239C73.1685 74.3464 95.0666 45.2135 95.0666 26.9815C95.0666 20.2385 93.9223 13.7049 91.1395 8.01229C84.1944 -6.19685 67.9467 1.41643 57.403 8.51062Z" fill="white"/>
</mask>
<g mask="url(#mask0_555_1654)">
<path d="M10.4154 59.7271C10.4154 59.7271 19.2306 29.62 42.5652 53.671C62.7781 74.5037 89.7528 46.2308 89.7528 46.2308L88.0243 72.3582L46.0221 81.1827H2.11865L10.4154 59.7271Z" fill="url(#paint1_linear_555_1654)"/>
<path d="M30.4664 -5.3318C30.4664 -5.3318 10.0703 -5.3318 14.0458 22.6989C15.8884 35.6882 13.4771 50.5272 -7.50492 55.5208C-28.487 60.5144 -14.5934 -9.12114 -14.5934 -9.12114L39.2817 -39.5916L30.4664 -5.3318Z" fill="url(#paint2_radial_555_1654)"/>
<path d="M47.5663 -9.54837C47.5663 -9.54837 45.4869 23.2649 65.8242 22.5779C86.1616 21.8927 95.0702 30.3989 95.1289 45.1219C95.1877 59.8449 122.358 14.8401 122.358 14.8401L86.5712 -26.2007L47.5663 -9.54837Z" fill="url(#paint3_radial_555_1654)"/>
</g>
<circle cx="39.215" cy="58.0377" r="3.66003" fill="#E05500"/>
<circle cx="53.8549" cy="58.0377" r="3.66003" fill="#E05500"/>
<defs>
<radialGradient id="paint0_radial_555_1654" cx="0" cy="0" r="1" gradientUnits="userSpaceOnUse" gradientTransform="translate(47.5344 31.3586) rotate(-0.0175754) scale(84.8798 84.9685)">
<stop stop-color="#FF9900"/>
<stop offset="1" stop-color="#C41700"/>
</radialGradient>
<linearGradient id="paint1_linear_555_1654" x1="-5.51778" y1="58.9187" x2="113.318" y2="67.3727" gradientUnits="userSpaceOnUse">
<stop stop-color="#FF9900"/>
<stop offset="1" stop-color="#C41700"/>
</linearGradient>
<radialGradient id="paint2_radial_555_1654" cx="0" cy="0" r="1" gradientUnits="userSpaceOnUse" gradientTransform="translate(10.0896 8.0927) rotate(-0.0435159) scale(52.1292 129.204)">
<stop stop-color="#FF9900"/>
<stop offset="1" stop-color="#C41700"/>
</radialGradient>
<radialGradient id="paint3_radial_555_1654" cx="0" cy="0" r="1" gradientUnits="userSpaceOnUse" gradientTransform="translate(84.9329 10.9401) rotate(-0.026438) scale(66.8307 100.636)">
<stop stop-color="#FF9900"/>
<stop offset="1" stop-color="#C41700"/>
</radialGradient>
</defs>
</svg>
