<svg width="32" height="34" viewBox="0 0 32 34" fill="none" xmlns="http://www.w3.org/2000/svg">
<path fill-rule="evenodd" clip-rule="evenodd" d="M20.8 2.40417L15.9 0.0875C15.65 -0.0291667 15.3666 -0.0291667 15.1166 0.0875L10.2 2.40417C9.49998 2.7375 9.18331 3.5875 9.51664 4.2875C9.74998 4.80417 10.2666 5.10417 10.8 5.10417C11 5.10417 11.2 5.05417 11.4 4.97083L14.0833 3.70417V7.15417C14.0833 7.9375 14.7166 8.57083 15.5 8.57083C16.2833 8.57083 16.9166 7.9375 16.9166 7.15417V3.70417L19.6 4.97083C20.3 5.30417 21.15 5.00417 21.4833 4.2875C21.8166 3.57083 21.5166 2.7375 20.8 2.40417ZM19.6 11.9542L15.5 13.8875L11.4 11.9542C10.7 11.6208 9.85 11.9208 9.51667 12.6375C9.18334 13.3375 9.48334 14.1875 10.2 14.5208L14.0333 16.3208C14.0333 16.3542 14.025 16.3833 14.0167 16.4125C14.0083 16.4417 14 16.4708 14 16.5042V19.9708C14 20.7542 14.6333 21.3875 15.4167 21.3875C16.2 21.3875 16.8333 20.7542 16.8333 19.9708V16.5042C16.8333 16.4875 16.8292 16.4708 16.825 16.4542L16.825 16.4542L16.825 16.4541C16.8208 16.4375 16.8167 16.4208 16.8167 16.4042L20.8167 14.5208C21.5167 14.1875 21.8333 13.3375 21.5 12.6375C21.15 11.9375 20.3 11.6208 19.6 11.9542ZM26.0833 5.00417L30.4667 7.10417C30.8 7.25417 31 7.5875 31 7.9375V12.9875C31 13.7708 30.3667 14.4042 29.5833 14.4042C28.8 14.4042 28.1667 13.7708 28.1667 12.9875V11.1208L25.85 12.2042C25.65 12.2875 25.45 12.3375 25.25 12.3375C24.7167 12.3375 24.2 12.0375 23.9667 11.5208C23.6333 10.8208 23.95 9.97083 24.65 9.6375L26.95 8.55417L24.8667 7.55417C24.1667 7.22083 23.8667 6.37083 24.2 5.67083C24.5333 4.97083 25.3833 4.67083 26.0833 5.00417ZM6.35 9.6375L4.05 8.55416L6.13333 7.55416C6.83333 7.22083 7.13333 6.37083 6.8 5.67083C6.46667 4.95416 5.61667 4.65416 4.91667 5.00416L0.533333 7.10416C0.2 7.25416 0 7.58749 0 7.9375V12.9708C0 13.7542 0.633333 14.3875 1.41667 14.3875C2.2 14.3875 2.83333 13.7708 2.83333 12.9875V11.1042L5.15 12.1875C5.35 12.2875 5.55 12.3375 5.75 12.3375C6.28333 12.3375 6.8 12.0375 7.03333 11.5208C7.36667 10.8208 7.06667 9.97083 6.35 9.6375ZM28.1667 21.1042C28.1667 20.3208 28.8 19.6875 29.5834 19.6875C30.3667 19.6875 31 20.3208 31.0167 21.1042V26.1375C31.0167 26.5042 30.8 26.8375 30.4834 26.9875L26.1 29.0875C25.9 29.1708 25.6834 29.2208 25.4834 29.2208C24.95 29.2208 24.45 28.9208 24.2 28.4208C23.8667 27.7208 24.1667 26.8708 24.8667 26.5375L26.95 25.5375L24.65 24.4542C23.9334 24.1208 23.6334 23.2875 23.9667 22.5708C24.3 21.8542 25.15 21.5542 25.85 21.8875L28.1667 22.9708V21.1042ZM7.03333 22.5542C6.7 21.8542 5.85 21.5375 5.15 21.8708L2.83333 22.9708V21.1042C2.83333 20.3208 2.2 19.6875 1.41667 19.6875C0.633333 19.6875 0 20.3208 0 21.1042V26.1542C0 26.5042 0.2 26.8375 0.516667 26.9875L4.9 29.0875C5.1 29.1875 5.3 29.2208 5.51667 29.2208C6.05 29.2208 6.55 28.9208 6.8 28.4208C7.13333 27.7208 6.83333 26.8708 6.13333 26.5375L4.05 25.5375L6.35 24.4542C7.06667 24.1208 7.36667 23.2708 7.03333 22.5542ZM16.9167 30.1542L19.6 28.8875C20.3 28.5542 21.15 28.8542 21.4833 29.5708C21.8167 30.2708 21.5 31.1208 20.8 31.4542L15.9 33.7542C15.65 33.8708 15.35 33.8708 15.1 33.7542L10.2 31.4542C9.48334 31.1208 9.18334 30.2708 9.51667 29.5708C9.85 28.8542 10.7 28.5542 11.4 28.8875L14.0833 30.1542V26.7042C14.0833 25.9208 14.7167 25.2875 15.5 25.2875C16.2833 25.2875 16.9167 25.9208 16.9167 26.7042V30.1542Z" fill="#FF9900"/>
</svg>
