<svg width="24" height="25" viewBox="0 0 24 25" fill="none" xmlns="http://www.w3.org/2000/svg">
<path d="M23.6508 12.7676C23.6508 11.7782 23.5705 11.0563 23.3968 10.3076H12.0996V14.7729H18.7308C18.5971 15.8826 17.8752 17.5538 16.2708 18.6768L16.2483 18.8263L19.8203 21.5934L20.0678 21.6181C22.3405 19.5191 23.6508 16.4308 23.6508 12.7676Z" fill="#4285F4"/>
<path d="M12.0986 24.5326C15.3474 24.5326 18.0747 23.463 20.0668 21.6181L16.2699 18.6767C15.2538 19.3853 13.8901 19.88 12.0986 19.88C8.91674 19.88 6.21614 17.781 5.25345 14.8799L5.11235 14.8919L1.39818 17.7663L1.34961 17.9013C3.32826 21.8319 7.39257 24.5326 12.0986 24.5326Z" fill="#34A853"/>
<path d="M5.25368 14.8799C4.99967 14.1312 4.85266 13.329 4.85266 12.5001C4.85266 11.6711 4.99967 10.869 5.24032 10.1203L5.23359 9.96089L1.47288 7.04028L1.34984 7.09881C0.53434 8.7299 0.0664062 10.5615 0.0664062 12.5001C0.0664062 14.4387 0.53434 16.2702 1.34984 17.9013L5.25368 14.8799" fill="#FBBC05"/>
<path d="M12.0986 5.12029C14.358 5.12029 15.8821 6.09626 16.7512 6.91185L20.147 3.59621C18.0614 1.65766 15.3474 0.467773 12.0986 0.467773C7.39257 0.467773 3.32826 3.16837 1.34961 7.09894L5.24009 10.1205C6.21614 7.21932 8.91674 5.12029 12.0986 5.12029" fill="#EB4335"/>
</svg>
