<svg width="42" height="42" viewBox="0 0 42 42" fill="none" xmlns="http://www.w3.org/2000/svg">
<rect width="42" height="42" fill="white"/>
<path fill-rule="evenodd" clip-rule="evenodd" d="M11.8998 15.4C13.0596 15.4 13.9998 14.4597 13.9998 13.3C13.9998 12.1402 13.0596 11.2 11.8998 11.2C10.74 11.2 9.7998 12.1402 9.7998 13.3C9.7998 14.4597 10.74 15.4 11.8998 15.4ZM17.4998 12.3C16.9475 12.3 16.4998 12.7477 16.4998 13.3C16.4998 13.8522 16.9475 14.3 17.4998 14.3H33.5998C34.1521 14.3 34.5998 13.8522 34.5998 13.3C34.5998 12.7477 34.1521 12.3 33.5998 12.3H17.4998ZM17.4998 20C16.9475 20 16.4998 20.4477 16.4998 21C16.4998 21.5522 16.9475 22 17.4998 22H33.5998C34.1521 22 34.5998 21.5522 34.5998 21C34.5998 20.4477 34.1521 20 33.5998 20H17.4998ZM16.4998 29.4C16.4998 28.8477 16.9475 28.4 17.4998 28.4H33.5998C34.1521 28.4 34.5998 28.8477 34.5998 29.4C34.5998 29.9522 34.1521 30.4 33.5998 30.4H17.4998C16.9475 30.4 16.4998 29.9522 16.4998 29.4ZM13.9998 21C13.9998 22.1597 13.0596 23.1 11.8998 23.1C10.74 23.1 9.7998 22.1597 9.7998 21C9.7998 19.8402 10.74 18.9 11.8998 18.9C13.0596 18.9 13.9998 19.8402 13.9998 21ZM11.8998 31.5C13.0596 31.5 13.9998 30.5597 13.9998 29.4C13.9998 28.2402 13.0596 27.2999 11.8998 27.2999C10.74 27.2999 9.7998 28.2402 9.7998 29.4C9.7998 30.5597 10.74 31.5 11.8998 31.5Z" fill="black"/>
</svg>
