<svg width="42" height="42" viewBox="0 0 42 42" fill="none" xmlns="http://www.w3.org/2000/svg">
<rect width="42" height="42" transform="matrix(0 1 -1 0 42 0)" fill="white"/>
<path fill-rule="evenodd" clip-rule="evenodd" d="M26.6 11.9C26.6 13.0598 27.5403 14 28.7 14C29.8598 14 30.8 13.0598 30.8 11.9C30.8 10.7402 29.8598 9.79999 28.7 9.79999C27.5403 9.79999 26.6 10.7402 26.6 11.9ZM29.7 17.5C29.7 16.9477 29.2523 16.5 28.7 16.5C28.1478 16.5 27.7 16.9477 27.7 17.5L27.7 33.6C27.7 34.1523 28.1478 34.6 28.7 34.6C29.2523 34.6 29.7 34.1523 29.7 33.6L29.7 17.5ZM22 17.5C22 16.9477 21.5523 16.5 21 16.5C20.4478 16.5 20 16.9477 20 17.5L20 33.6C20 34.1523 20.4478 34.6 21 34.6C21.5523 34.6 22 34.1523 22 33.6L22 17.5ZM12.6 16.5C13.1523 16.5 13.6 16.9477 13.6 17.5L13.6 33.6C13.6 34.1523 13.1523 34.6 12.6 34.6C12.0478 34.6 11.6 34.1523 11.6 33.6L11.6 17.5C11.6 16.9477 12.0478 16.5 12.6 16.5ZM21 14C19.8403 14 18.9 13.0598 18.9 11.9C18.9 10.7402 19.8403 9.79999 21 9.79999C22.1598 9.79999 23.1 10.7402 23.1 11.9C23.1 13.0598 22.1598 14 21 14ZM10.5 11.9C10.5 13.0598 11.4403 14 12.6 14C13.7598 14 14.7001 13.0598 14.7001 11.9C14.7001 10.7402 13.7598 9.79999 12.6 9.79999C11.4403 9.79999 10.5 10.7402 10.5 11.9Z" fill="black"/>
</svg>
